<?xml version="1.0" encoding="UTF-8"?>
<svg width="144px" height="87px" viewBox="0 0 144 87" version="1.1" xmlns="http://www.w3.org/2000/svg" xmlns:xlink="http://www.w3.org/1999/xlink">
    <!-- Generator: Sketch 49.3 (51167) - http://www.bohemiancoding.com/sketch -->
    <title>Group 3</title>
    <desc>Created with Sketch.</desc>
    <defs></defs>
    <g id="Landing-Page" stroke="none" stroke-width="1" fill="none" fill-rule="evenodd">
        <g id="Kudos" transform="translate(-650.000000, -3757.000000)">
            <g id="Group-3" transform="translate(650.000000, 3757.000000)">
                <g id="Group-4" transform="translate(95.000000, 38.000000)">
                    <circle id="Oval-2" fill="#D61C71" cx="24.5" cy="24.5" r="24.5"></circle>
                    <path d="M24.5,48.9790013 C38.0309764,48.9790013 49,38.0146784 49,24.4895007 C49,10.9643229 38.0309764,0 24.5,0 C24.5,0 24.5,50.1736111 24.5,48.9790013 Z" id="Oval-2-Copy-3" fill="#B71861"></path>
                    <g id="Group-2" transform="translate(13.611111, 12.703704)">
                        <g id="thumbs-up" fill="#FFFFFF">
                            <path d="M21.00591,12.7121422 C21.4979063,12.1325647 21.7777778,11.1752977 21.7777778,10.2633989 C21.7777778,9.66113731 21.6500586,9.13373313 21.4079476,8.73789644 C21.0925369,8.22296848 20.588324,7.93941784 19.9885993,7.93941784 L17.0810456,7.93941784 C18.6636522,5.00069904 19.0634686,2.78673566 18.2693888,1.35310364 C17.7151988,0.353871195 16.7001094,0 15.9982094,0 C15.7205592,0 15.4851117,0.209827472 15.4484619,0.491109704 C15.2496643,1.98712287 14.1290677,3.77235768 12.3743179,5.38859631 C10.6928678,6.93678279 8.62714966,8.17419777 6.50368028,8.91596624 C6.23602541,8.33979134 5.66184462,7.94055205 4.99770514,7.94055205 L1.66590171,7.94055205 C0.747434568,7.94055205 0,8.70387036 0,9.64185587 L0,19.8496788 C0,20.7876643 0.747434568,21.5509826 1.66590171,21.5509826 L4.99770514,21.5509826 C5.70182626,21.5509826 6.30377208,21.1029726 6.54810433,20.4712218 C8.72599317,20.7502356 9.54561681,21.1971114 10.3396966,21.6303768 C11.3336846,22.1725256 12.271032,22.6851852 15.3407336,22.6851852 C16.1403664,22.6851852 16.893354,22.4719551 17.4619817,22.085192 C18.0172823,21.7075026 18.3726747,21.1766958 18.4903984,20.561958 C18.9335283,20.3782172 19.3266811,19.9540254 19.627654,19.3234088 C19.9208527,18.7098053 20.1107655,17.9260713 20.1107655,17.3260781 C20.1107655,17.2137921 20.1041019,17.1105797 20.0918852,17.0153066 C20.3728673,16.804345 20.6249738,16.4788288 20.8326562,16.0501003 C21.1325185,15.4319599 21.3124359,14.6572995 21.3124359,13.9790464 C21.3124359,13.4981445 21.2246984,13.097771 21.0525552,12.7869995 C21.0381174,12.7620471 21.0236796,12.7370946 21.0092418,12.7132764 L21.00591,12.7121422 Z M4.99548393,20.4156459 L1.66368051,20.4156459 C1.35715459,20.4156459 1.10837994,20.1615845 1.10837994,19.8485446 L1.10837994,9.64072167 C1.10837994,9.32768176 1.35715459,9.07362039 1.66368051,9.07362039 L4.99548393,9.07362039 C5.30200985,9.07362039 5.5507845,9.32768176 5.5507845,9.64072167 L5.5507845,19.8474104 C5.5507845,19.8474104 5.5507845,19.8485446 5.5507845,19.8485446 C5.5507845,20.1615845 5.30200985,20.4156459 4.99548393,20.4156459 Z" id="Shape" fill-rule="nonzero"></path>
                            <rect id="Rectangle-2" x="0.98989899" y="8.87681159" width="4.94949495" height="11.8357488"></rect>
                        </g>
                        <path d="M6.65432099,7.07046479 L6.65432099,22.2150273" id="Line" stroke="#D61C71" stroke-width="0.9" stroke-linecap="square"></path>
                    </g>
                </g>
                <g id="Group-4" transform="translate(80.000000, 0.000000)">
                    <circle id="Oval-2" fill="#FFBA00" cx="17.5" cy="17.5" r="17.5"></circle>
                    <path d="M17.0512821,34.9850009 C26.4684451,34.9850009 34.1025641,27.1533417 34.1025641,17.4925005 C34.1025641,7.83165923 26.4684451,0 17.0512821,0 C17.0512821,0 17.0512821,35.8382937 17.0512821,34.9850009 Z" id="Oval-2-Copy-3" fill="#EAAC05"></path>
                    <g id="Group-2" transform="translate(9.871795, 8.974359)">
                        <g id="thumbs-up" fill="#FFFFFF">
                            <path d="M15.5813069,9.05216278 C15.9462492,8.63945264 16.1538462,7.95779442 16.1538462,7.30844227 C16.1538462,6.8795791 16.0591094,6.50402095 15.8795216,6.22215043 C15.6455631,5.85547646 15.271559,5.65356348 14.8267083,5.65356348 L12.6700063,5.65356348 C13.8439178,3.56093734 14.1404849,1.98440078 13.5514697,0.963528747 C13.1403947,0.251987401 12.3874438,0 11.8668037,0 C11.6608543,0 11.4862092,0.149415606 11.4590239,0.349713284 C11.3115642,1.41500617 10.4803524,2.6862503 9.1787523,3.8371543 C7.93152281,4.93959917 6.39925937,5.82074742 4.82415845,6.34895178 C4.62562324,5.93866461 4.19971991,5.65437113 3.70708897,5.65437113 L1.23569632,5.65437113 C0.554415751,5.65437113 0,6.19792087 0,6.86584902 L0,14.1347163 C0,14.8026445 0.554415751,15.3461942 1.23569632,15.3461942 L3.70708897,15.3461942 C4.22937662,15.3461942 4.67587489,15.0271717 4.85711035,14.5773096 C6.47257735,14.775992 7.08053994,15.0942068 7.66955519,15.4027299 C8.406854,15.7887875 9.10213913,16.1538462 11.3791156,16.1538462 C11.9722498,16.1538462 12.5307845,16.0020076 12.9525689,15.7265983 C13.3644677,15.4576502 13.6280829,15.0796691 13.7154054,14.6419218 C14.0441006,14.5110821 14.335725,14.2090203 14.5589741,13.7599658 C14.7764567,13.3230262 14.917326,12.7649387 14.917326,12.3376908 C14.917326,12.2577333 14.9123832,12.1842369 14.9033215,12.1163942 C15.1117423,11.9661709 15.2987443,11.7343748 15.4527944,11.4290824 C15.6752198,10.9889121 15.808675,10.4372858 15.808675,9.95430998 C15.808675,9.61186556 15.743595,9.32676443 15.6159064,9.1054678 C15.605197,9.08769946 15.5944876,9.06993112 15.5837782,9.05297043 L15.5813069,9.05216278 Z M3.70544138,14.5377347 L1.23404873,14.5377347 C1.00668061,14.5377347 0.822149955,14.3568206 0.822149955,14.1339087 L0.822149955,6.86504136 C0.822149955,6.64212943 1.00668061,6.4612154 1.23404873,6.4612154 L3.70544138,6.4612154 C3.9328095,6.4612154 4.11734015,6.64212943 4.11734015,6.86504136 L4.11734015,14.133101 C4.11734015,14.133101 4.11734015,14.1339087 4.11734015,14.1339087 C4.11734015,14.3568206 3.9328095,14.5377347 3.70544138,14.5377347 Z" id="Shape" fill-rule="nonzero"></path>
                            <rect id="Rectangle-2" x="0.734265734" y="6.32107023" width="3.67132867" height="8.42809365"></rect>
                        </g>
                        <path d="M4.93589744,5.03479251 L4.93589744,15.8190524" id="Line" stroke="#FFBA00" stroke-width="0.9" stroke-linecap="square"></path>
                    </g>
                </g>
                <g id="Group-4-Copy" transform="translate(0.000000, 1.000000)">
                    <circle id="Oval-2" fill="#2298FF" cx="37" cy="37" r="37"></circle>
                    <path d="M37,73.9682877 C57.4345357,73.9682877 74,57.4099225 74,36.9841439 C74,16.5583652 57.4345357,0 37,0 C37,0 37,75.7723923 37,73.9682877 Z" id="Oval-2-Copy-3" fill="#1F89E5"></path>
                    <g id="Group-2" transform="translate(20.756098, 19.853659)">
                        <g id="thumbs-up" fill="#FFFFFF">
                            <path d="M31.3363426,19.2166587 C32.0702962,18.3405244 32.4878049,16.8934456 32.4878049,15.5149486 C32.4878049,14.6045234 32.2972751,13.8072584 31.936097,13.208881 C31.4655714,12.430476 30.7133932,12.0018389 29.8187318,12.0018389 L25.481281,12.0018389 C27.8421929,7.55944398 28.4386338,4.21264547 27.2540359,2.04545626 C26.4273025,0.534939107 24.9130054,0 23.8659202,0 C23.4517251,0 23.1004877,0.317191458 23.045814,0.742399465 C22.7492503,3.00388883 21.077559,5.70258804 18.4598461,8.14581954 C15.9514807,10.4861781 12.8698694,12.3567505 9.70210543,13.4780651 C9.30282138,12.6070745 8.44626596,12.0035535 7.45551134,12.0035535 L2.48517045,12.0035535 C1.11501314,12.0035535 0,13.1574446 0,14.5753761 L0,30.0063119 C0,31.4242434 1.11501314,32.5781345 2.48517045,32.5781345 L7.45551134,32.5781345 C8.50591005,32.5781345 9.40388498,31.9008879 9.76837664,30.9458844 C13.0173228,31.3676633 14.2400267,32.0431954 15.4246246,32.6981529 C16.9074429,33.517707 18.3057655,34.2926829 22.8851063,34.2926829 C24.0779881,34.2926829 25.2012851,33.9703478 26.0495566,33.3856868 C26.8779468,32.8147422 27.4081165,32.0123335 27.5837352,31.0830483 C28.2447905,30.8052914 28.8312908,30.1640503 29.2802782,29.2107614 C29.7176682,28.2831907 30.0009776,27.0984378 30.0009776,26.1914416 C30.0009776,26.0217014 29.991037,25.8656774 29.9728124,25.7216554 C30.3919778,25.4027494 30.7680669,24.910674 31.0778848,24.2625747 C31.5252155,23.3281458 31.7936139,22.1571092 31.7936139,21.1318093 C31.7936139,20.4048407 31.6627283,19.7996051 31.4059273,19.3298189 C31.3843892,19.2920988 31.3628511,19.2543787 31.3413129,19.2183732 L31.3363426,19.2166587 Z M7.45219778,30.8618715 L2.48185689,30.8618715 C2.02458553,30.8618715 1.65346674,30.4778127 1.65346674,30.0045973 L1.65346674,14.5736616 C1.65346674,14.1004462 2.02458553,13.7163874 2.48185689,13.7163874 L7.45219778,13.7163874 C7.90946915,13.7163874 8.28058793,14.1004462 8.28058793,14.5736616 L8.28058793,30.0028828 C8.28058793,30.0028828 8.28058793,30.0045973 8.28058793,30.0045973 C8.28058793,30.4778127 7.90946915,30.8618715 7.45219778,30.8618715 Z" id="Shape" fill-rule="nonzero"></path>
                            <rect id="Rectangle-2" x="1.4767184" y="13.4188759" width="7.38359202" height="17.8918346"></rect>
                        </g>
                        <path d="M9.92682927,10.6882622 L9.92682927,33.5819559" id="Line" stroke="#0088FF" stroke-width="0.9" stroke-linecap="square"></path>
                    </g>
                </g>
            </g>
        </g>
    </g>
</svg>