<?xml version="1.0" encoding="UTF-8"?>
<svg width="380px" height="375px" viewBox="0 0 380 375" version="1.1" xmlns="http://www.w3.org/2000/svg" xmlns:xlink="http://www.w3.org/1999/xlink">
    <!-- Generator: Sketch 49.3 (51167) - http://www.bohemiancoding.com/sketch -->
    <title>Group 7</title>
    <desc>Created with Sketch.</desc>
    <defs>
        <polygon id="path-1" points="1 116.137306 148 15 295 116.137306 295 288 1 288"></polygon>
        <filter x="-17.3%" y="-17.6%" width="134.7%" height="137.4%" filterUnits="objectBoundingBox" id="filter-2">
            <feOffset dx="0" dy="3" in="SourceAlpha" result="shadowOffsetOuter1"></feOffset>
            <feGaussianBlur stdDeviation="16.5" in="shadowOffsetOuter1" result="shadowBlurOuter1"></feGaussianBlur>
            <feColorMatrix values="0 0 0 0 0.616470026   0 0 0 0 0.603906627   0 0 0 0 0.603906627  0 0 0 0.5 0" type="matrix" in="shadowBlurOuter1"></feColorMatrix>
        </filter>
        <polygon id="path-3" points="294 119 294 288 0 288"></polygon>
        <filter x="-9.5%" y="-34.3%" width="129.9%" height="152.1%" filterUnits="objectBoundingBox" id="filter-4">
            <feOffset dx="16" dy="-14" in="SourceAlpha" result="shadowOffsetOuter1"></feOffset>
            <feGaussianBlur stdDeviation="12" in="shadowOffsetOuter1" result="shadowBlurOuter1"></feGaussianBlur>
            <feColorMatrix values="0 0 0 0 0.870190264   0 0 0 0 0.870190264   0 0 0 0 0.870190264  0 0 0 0.5 0" type="matrix" in="shadowBlurOuter1"></feColorMatrix>
        </filter>
        <polygon id="path-5" points="0 118 294 287 0 287"></polygon>
        <filter x="-10.2%" y="-33.7%" width="129.3%" height="150.9%" filterUnits="objectBoundingBox" id="filter-6">
            <feOffset dx="13" dy="-14" in="SourceAlpha" result="shadowOffsetOuter1"></feOffset>
            <feGaussianBlur stdDeviation="12" in="shadowOffsetOuter1" result="shadowBlurOuter1"></feGaussianBlur>
            <feColorMatrix values="0 0 0 0 0.870190264   0 0 0 0 0.870190264   0 0 0 0 0.870190264  0 0 0 0.5 0" type="matrix" in="shadowBlurOuter1"></feColorMatrix>
        </filter>
    </defs>
    <g id="Landing-Page" stroke="none" stroke-width="1" fill="none" fill-rule="evenodd">
        <g id="Landing-Page-Copy-12" transform="translate(-828.000000, -1222.000000)">
            <g id="Group-7" transform="translate(860.000000, 1234.000000)">
                <g id="Rectangle-2-Copy">
                    <use fill="black" fill-opacity="1" filter="url(#filter-2)" xlink:href="#path-1"></use>
                    <use fill="#FFFFFF" fill-rule="evenodd" xlink:href="#path-1"></use>
                </g>
                <g id="Group-4" transform="translate(131.000000, 120.000000)">
                    <circle id="Oval-2" fill="#FFBA00" cx="41" cy="41" r="41"></circle>
                    <path d="M41,81.9648594 C63.6436747,81.9648594 82,63.6164006 82,40.9824297 C82,18.3484588 63.6436747,0 41,0 C41,0 41,83.9640023 41,81.9648594 Z" id="Oval-2-Copy-3" fill="#EAAC05"></path>
                    <g id="Group-2" transform="translate(23.000000, 22.000000)">
                        <g id="thumbs-up" fill="#FFFFFF">
                            <path d="M34.7240553,21.2941353 C35.5373553,20.3232838 36,18.719764 36,17.1922404 C36,16.1833908 35.7888725,15.299935 35.3886481,14.6368682 C34.8672548,13.7743113 34.03376,13.299335 33.0423785,13.299335 L28.2360141,13.299335 C30.8521597,8.37668117 31.5130807,4.6680666 30.2004182,2.26658667 C29.2843082,0.592770361 27.6063032,0 26.4460197,0 C25.9870468,0 25.5978377,0.351482426 25.5372533,0.822658867 C25.2086287,3.32863357 23.356214,6.31908405 20.4555051,9.02644868 C17.6759651,11.619819 14.2612066,13.6926154 10.7509817,14.9351532 C10.3085318,13.9700015 9.3593758,13.3012349 8.26151257,13.3012349 L2.75383752,13.3012349 C1.2355551,13.3012349 0,14.579871 0,16.1510924 L0,33.2502375 C0,34.8214589 1.2355551,36.100095 2.75383752,36.100095 L8.26151257,36.100095 C9.4254679,36.100095 10.4205212,35.3496325 10.8244174,34.2913854 C14.4246009,34.7587621 15.779489,35.5073246 17.0921516,36.2330883 C18.7352746,37.1412429 20.2847672,38 25.3591718,38 C26.6810138,38 27.9257484,37.6428179 28.8657249,36.9949503 C29.7836708,36.3622819 30.3711561,35.4731263 30.5657606,34.4433778 C31.2982814,34.1355932 31.9481871,33.4250287 32.4457137,32.3686816 C32.9303891,31.340833 33.2443266,30.0279986 33.2443266,29.0229489 C33.2443266,28.8348583 33.2333112,28.6619669 33.2131164,28.5023749 C33.677597,28.1489926 34.0943444,27.6037198 34.4376562,26.8855557 C34.9333469,25.8501075 35.2307614,24.5524724 35.2307614,23.4163292 C35.2307614,22.6107695 35.0857259,21.940103 34.8011627,21.419529 C34.7772961,21.3777311 34.7534295,21.3359332 34.729563,21.2960352 L34.7240553,21.2941353 Z M8.25784079,34.1982901 L2.75016574,34.1982901 C2.24345964,34.1982901 1.8322199,33.7727114 1.8322199,33.2483376 L1.8322199,16.1491925 C1.8322199,15.6248188 2.24345964,15.19924 2.75016574,15.19924 L8.25784079,15.19924 C8.76454689,15.19924 9.17578663,15.6248188 9.17578663,16.1491925 L9.17578663,33.2464377 C9.17578663,33.2464377 9.17578663,33.2483376 9.17578663,33.2483376 C9.17578663,33.7727114 8.76454689,34.1982901 8.25784079,34.1982901 Z" id="Shape" fill-rule="nonzero"></path>
                            <rect id="Rectangle-2" x="1.63636364" y="14.8695652" width="8.18181818" height="19.826087"></rect>
                        </g>
                        <path d="M11,11.84375 L11,37.2124376" id="Line" stroke="#FFBA00" stroke-linecap="square"></path>
                    </g>
                </g>
                <g id="Group-4-Copy" transform="translate(10.000000, 41.000000)">
                    <circle id="Oval-2" fill="#2298FF" cx="41" cy="41" r="41"></circle>
                    <path d="M41,81.9648594 C63.6436747,81.9648594 82,63.6164006 82,40.9824297 C82,18.3484588 63.6436747,0 41,0 C41,0 41,83.9640023 41,81.9648594 Z" id="Oval-2-Copy-3" fill="#1F89E5"></path>
                    <g id="Group-2" transform="translate(23.000000, 22.000000)">
                        <g id="thumbs-up" fill="#FFFFFF">
                            <path d="M34.7240553,21.2941353 C35.5373553,20.3232838 36,18.719764 36,17.1922404 C36,16.1833908 35.7888725,15.299935 35.3886481,14.6368682 C34.8672548,13.7743113 34.03376,13.299335 33.0423785,13.299335 L28.2360141,13.299335 C30.8521597,8.37668117 31.5130807,4.6680666 30.2004182,2.26658667 C29.2843082,0.592770361 27.6063032,0 26.4460197,0 C25.9870468,0 25.5978377,0.351482426 25.5372533,0.822658867 C25.2086287,3.32863357 23.356214,6.31908405 20.4555051,9.02644868 C17.6759651,11.619819 14.2612066,13.6926154 10.7509817,14.9351532 C10.3085318,13.9700015 9.3593758,13.3012349 8.26151257,13.3012349 L2.75383752,13.3012349 C1.2355551,13.3012349 0,14.579871 0,16.1510924 L0,33.2502375 C0,34.8214589 1.2355551,36.100095 2.75383752,36.100095 L8.26151257,36.100095 C9.4254679,36.100095 10.4205212,35.3496325 10.8244174,34.2913854 C14.4246009,34.7587621 15.779489,35.5073246 17.0921516,36.2330883 C18.7352746,37.1412429 20.2847672,38 25.3591718,38 C26.6810138,38 27.9257484,37.6428179 28.8657249,36.9949503 C29.7836708,36.3622819 30.3711561,35.4731263 30.5657606,34.4433778 C31.2982814,34.1355932 31.9481871,33.4250287 32.4457137,32.3686816 C32.9303891,31.340833 33.2443266,30.0279986 33.2443266,29.0229489 C33.2443266,28.8348583 33.2333112,28.6619669 33.2131164,28.5023749 C33.677597,28.1489926 34.0943444,27.6037198 34.4376562,26.8855557 C34.9333469,25.8501075 35.2307614,24.5524724 35.2307614,23.4163292 C35.2307614,22.6107695 35.0857259,21.940103 34.8011627,21.419529 C34.7772961,21.3777311 34.7534295,21.3359332 34.729563,21.2960352 L34.7240553,21.2941353 Z M8.25784079,34.1982901 L2.75016574,34.1982901 C2.24345964,34.1982901 1.8322199,33.7727114 1.8322199,33.2483376 L1.8322199,16.1491925 C1.8322199,15.6248188 2.24345964,15.19924 2.75016574,15.19924 L8.25784079,15.19924 C8.76454689,15.19924 9.17578663,15.6248188 9.17578663,16.1491925 L9.17578663,33.2464377 C9.17578663,33.2464377 9.17578663,33.2483376 9.17578663,33.2483376 C9.17578663,33.7727114 8.76454689,34.1982901 8.25784079,34.1982901 Z" id="Shape" fill-rule="nonzero"></path>
                            <rect id="Rectangle-2" x="1.63636364" y="14.8695652" width="8.18181818" height="19.826087"></rect>
                        </g>
                        <path d="M11,11.84375 L11,37.2124376" id="Line" stroke="#0088FF" stroke-linecap="square"></path>
                    </g>
                </g>
                <g id="Group-4" transform="translate(181.000000, 0.000000)">
                    <circle id="Oval-2" fill="#D61C71" cx="41" cy="41" r="41"></circle>
                    <path d="M41,81.9648594 C63.6436747,81.9648594 82,63.6164006 82,40.9824297 C82,18.3484588 63.6436747,0 41,0 C41,0 41,83.9640023 41,81.9648594 Z" id="Oval-2-Copy-3" fill="#B71861"></path>
                    <g id="Group-2" transform="translate(23.000000, 22.000000)">
                        <g id="thumbs-up" fill="#FFFFFF">
                            <path d="M34.7240553,21.2941353 C35.5373553,20.3232838 36,18.719764 36,17.1922404 C36,16.1833908 35.7888725,15.299935 35.3886481,14.6368682 C34.8672548,13.7743113 34.03376,13.299335 33.0423785,13.299335 L28.2360141,13.299335 C30.8521597,8.37668117 31.5130807,4.6680666 30.2004182,2.26658667 C29.2843082,0.592770361 27.6063032,0 26.4460197,0 C25.9870468,0 25.5978377,0.351482426 25.5372533,0.822658867 C25.2086287,3.32863357 23.356214,6.31908405 20.4555051,9.02644868 C17.6759651,11.619819 14.2612066,13.6926154 10.7509817,14.9351532 C10.3085318,13.9700015 9.3593758,13.3012349 8.26151257,13.3012349 L2.75383752,13.3012349 C1.2355551,13.3012349 0,14.579871 0,16.1510924 L0,33.2502375 C0,34.8214589 1.2355551,36.100095 2.75383752,36.100095 L8.26151257,36.100095 C9.4254679,36.100095 10.4205212,35.3496325 10.8244174,34.2913854 C14.4246009,34.7587621 15.779489,35.5073246 17.0921516,36.2330883 C18.7352746,37.1412429 20.2847672,38 25.3591718,38 C26.6810138,38 27.9257484,37.6428179 28.8657249,36.9949503 C29.7836708,36.3622819 30.3711561,35.4731263 30.5657606,34.4433778 C31.2982814,34.1355932 31.9481871,33.4250287 32.4457137,32.3686816 C32.9303891,31.340833 33.2443266,30.0279986 33.2443266,29.0229489 C33.2443266,28.8348583 33.2333112,28.6619669 33.2131164,28.5023749 C33.677597,28.1489926 34.0943444,27.6037198 34.4376562,26.8855557 C34.9333469,25.8501075 35.2307614,24.5524724 35.2307614,23.4163292 C35.2307614,22.6107695 35.0857259,21.940103 34.8011627,21.419529 C34.7772961,21.3777311 34.7534295,21.3359332 34.729563,21.2960352 L34.7240553,21.2941353 Z M8.25784079,34.1982901 L2.75016574,34.1982901 C2.24345964,34.1982901 1.8322199,33.7727114 1.8322199,33.2483376 L1.8322199,16.1491925 C1.8322199,15.6248188 2.24345964,15.19924 2.75016574,15.19924 L8.25784079,15.19924 C8.76454689,15.19924 9.17578663,15.6248188 9.17578663,16.1491925 L9.17578663,33.2464377 C9.17578663,33.2464377 9.17578663,33.2483376 9.17578663,33.2483376 C9.17578663,33.7727114 8.76454689,34.1982901 8.25784079,34.1982901 Z" id="Shape" fill-rule="nonzero"></path>
                            <rect id="Rectangle-2" x="1.63636364" y="14.8695652" width="8.18181818" height="19.826087"></rect>
                        </g>
                        <path d="M11,11.84375 L11,37.2124376" id="Line" stroke="#D61C71" stroke-linecap="square"></path>
                    </g>
                </g>
                <polygon id="Path-3" fill="#FFFFFF" points="143 207 227 158 244 200"></polygon>
                <g id="Triangle" style="mix-blend-mode: multiply;">
                    <use fill="black" fill-opacity="1" filter="url(#filter-4)" xlink:href="#path-3"></use>
                    <use fill="#FFFFFF" fill-rule="evenodd" xlink:href="#path-3"></use>
                </g>
                <g id="Triangle" style="mix-blend-mode: multiply;">
                    <use fill="black" fill-opacity="1" filter="url(#filter-6)" xlink:href="#path-5"></use>
                    <use fill="#FFFFFF" fill-rule="evenodd" xlink:href="#path-5"></use>
                </g>
                <polygon id="Fill-76" fill="#CBA285" transform="translate(245.750536, 252.165912) rotate(-135.000000) translate(-245.750536, -252.165912) " points="238.956935 253.828962 242.092443 244.350338 243.137612 241.190797 243.137612 230.658993 250.453798 230.658993 253.589306 232.765354 252.544137 238.031256 249.408628 244.350338 247.105669 273.67283 238.620387 273.67283 237.911765 256.988503"></polygon>
                <path d="M279.322277,289 C283.079658,291.843929 277.772676,301.170525 277.739891,307 C277.717395,311 277.27061,318.320407 277.739891,321.612649 C277.974009,323.259823 278.218579,324.904891 278.472555,326.548905 C278.632466,327.589448 278.581252,329.701074 279.322277,330.513076 C279.470692,330.677373 279.656732,330.800595 279.840681,330.922764 C282.798511,332.892211 286.127375,332.055986 286.737754,328.370908 C286.973962,326.942795 287.226893,325.514682 287.446379,324.084463 C287.446379,324.081304 296.717395,296 294.717395,284 C288.717395,274.666667 279.717395,271 267.717395,273 C267.717395,273 256.769654,282.97999 256.717395,283 C257.134655,286.475607 258.467988,288.475607 260.717395,289 C265.922371,290.21341 277.719128,287.78659 279.322277,289 Z" id="Fill-66" fill="#494E50" transform="translate(275.858698, 302.214168) scale(-1, 1) translate(-275.858698, -302.214168) "></path>
                <path d="M310.376046,276.159541 L310.376046,314.074036 C310.106393,319.109291 309.835694,324.1456 309.56604,329.181909 C309.276528,334.564714 309.035094,339.950678 308.73513,345.334536 C308.493696,349.636778 308.560587,355.496674 303.464341,356.978499 C302.19446,357.348165 299.617073,357.214411 298.906358,355.814735 C298.517555,355.046966 298.760034,353.992732 298.715092,353.15756 C298.575039,350.54146 295.519278,332.447883 294.376046,326 C293.36676,320.307575 288.731127,288.159541 292.376046,276.159541" id="Fill-68" fill="#585A5B" transform="translate(300.688023, 316.657115) scale(-1, 1) translate(-300.688023, -316.657115) "></path>
                <path d="M264.120062,229.020658 C265.893714,235.25022 258.893942,241.786257 258.956652,248.271742 C259.020407,254.953119 258.488943,266.299031 258.031159,272.939334 C257.986217,273.590199 257.959043,274.260022 258.175393,274.874026 C259.30104,278.070429 262.933638,279.018469 265.554515,279.697592 C268.175393,280.376716 275.288742,280.376716 277.175393,280.376716 C283.123473,280.376716 289.71417,280.581012 294.103881,276.376716 C294.967191,275.549969 295.940284,273.59157 296.192129,272.376716 C296.548184,270.659177 296.548184,267.659177 296.192129,263.376716 C295.901572,253.897919 295.901572,248.465176 296.192129,247.078489 C296.390711,246.133786 296.464918,242.981617 297.156821,242.359188 C298.025356,241.576675 300.324729,243.071138 301.377214,243.498729 C301.62701,243.599834 301.887257,243.704099 302.156911,243.688301 C302.502862,243.669344 302.804916,243.457655 303.081886,243.249125 C305.689583,241.296529 307.968053,238.895277 309.788738,236.183338 C312.065116,232.791044 303.6306,227.861106 301.660455,226.57096 C299.178178,224.946956 296.610197,223.458812 294.019222,222.020168 C292.292602,221.061773 284.626285,220.05388 283.101383,220.798478 C281.313098,221.672618 279.773564,222.710533 277.883897,221.952243 C276.935929,221.573098 276.007818,221.078103 275.316962,220.320866 C273.627968,218.468322 262.99546,225.071231 264.120062,229.020658 Z" id="Fill-72" fill="#5551BD" transform="translate(284.087696, 250.189159) scale(-1, 1) translate(-284.087696, -250.189159) "></path>
                <path d="M285.014871,358.90895 C285.009646,360.416051 285.005465,361.922099 285.000239,363.4292 C284.999194,363.592443 284.999194,363.758845 285.053543,363.91261 C285.612708,365.499753 288.58726,365.030034 289.72754,364.772005 C295.040136,363.572433 300.401855,360.625634 303.826875,356.26968 C304.694365,355.164893 304.948342,353.816822 303.649196,352.953215 C302.336463,352.080128 300.594166,351.918991 299.060903,352.031682 C297.666647,352.131734 296.301655,352.470858 294.94398,352.806822" id="Fill-62" fill="#5551BD" transform="translate(294.775388, 358.521167) scale(-1, 1) rotate(39.000000) translate(-294.775388, -358.521167) "></path>
                <path d="M253.642968,329.895032 C253.637743,331.402133 253.633562,332.908181 253.628336,334.415283 C253.627291,334.578526 253.627291,334.744928 253.68164,334.898692 C254.240805,336.485835 257.215357,336.016117 258.355637,335.758088 C263.668233,334.558515 269.029952,331.611716 272.454972,327.255762 C273.322462,326.150976 273.576439,324.802905 272.277293,323.939297 C270.96456,323.066211 269.222263,322.905074 267.689,323.017764 C266.294744,323.117816 263.357818,324.293166 262.000143,324.62913" id="Fill-64" fill="#5551BD" transform="translate(263.403485, 329.507249) scale(-1, 1) rotate(6.000000) translate(-263.403485, -329.507249) "></path>
                <path d="M330.866763,254.797722 C331.758292,255.47597 332.727164,256.182654 333.84236,256.219516 C335.153002,256.263749 336.342405,255.335897 336.999817,254.192143 C338.144277,252.199526 338.936515,249.639244 339.662908,247.46864 C342.589382,238.72303 343.324136,235.55085 343.636642,233.598254 C344.259563,229.694114 348.387982,227.264427 347.378348,223.087513 C346.522355,219.550934 343.045076,219.918494 340.172951,220.118598 C339.888665,220.138608 339.590791,220.162831 339.350402,220.317649 C339.14764,220.449296 339.009677,220.658879 338.886347,220.865303 C338.306278,221.834229 337.699035,223.080141 337.549576,224.222842 C337.366671,225.623572 337.532853,227.068535 338.030354,228.389223 C338.746295,230.29232 337.610195,232.223853 336.907842,233.935271 C336.169952,235.73621 335.743523,237.657211 334.946059,239.436033 C334.633553,240.133238 334.234298,241.260141 333.605106,241.738285 C332.701035,242.423906 332.270425,242.02791 331.15732,242.105845 C330.269971,242.170089 323.574843,234.315433 323,235 C321.325639,236.995777 317.674361,239.742508 316,241.738285 C324.385228,249.285376 329.340815,253.638522 330.866763,254.797722 Z" id="Fill-70" fill="#CBA285"></path>
                <path d="M279.120062,229.020658 C280.893714,235.25022 273.893942,241.786257 273.956652,248.271742 C274.020407,254.953119 273.488943,266.299031 273.031159,272.939334 C272.986217,273.590199 272.959043,274.260022 273.175393,274.874026 C274.30104,278.070429 277.933638,279.018469 280.554515,279.697592 C283.175393,280.376716 290.288742,280.376716 292.175393,280.376716 C298.123473,280.376716 304.71417,280.581012 309.103881,276.376716 C309.967191,275.549969 310.940284,273.59157 311.192129,272.376716 C311.548184,270.659177 311.548184,267.659177 311.192129,263.376716 C310.901572,253.897919 310.901572,248.465176 311.192129,247.078489 C311.390711,246.133786 311.464918,242.981617 312.156821,242.359188 C313.025356,241.576675 315.324729,243.071138 316.377214,243.498729 C316.62701,243.599834 316.887257,243.704099 317.156911,243.688301 C317.502862,243.669344 317.804916,243.457655 318.081886,243.249125 C320.689583,241.296529 322.968053,238.895277 324.788738,236.183338 C327.065116,232.791044 318.6306,227.861106 316.660455,226.57096 C314.178178,224.946956 311.610197,223.458812 309.019222,222.020168 C307.292602,221.061773 299.626285,220.05388 298.101383,220.798478 C296.313098,221.672618 294.773564,222.710533 292.883897,221.952243 C291.935929,221.573098 291.007818,221.078103 290.316962,220.320866 C288.627968,218.468322 277.99546,225.071231 279.120062,229.020658 Z" id="Fill-72-Copy" fill="#5551BD"></path>
                <path d="M299.664469,223.512196 C297.081762,225.533371 294.526939,226.362639 292,226 C289.473061,225.637361 287.135371,224.105973 284.986928,221.405835 L287,212.980392 L298,212.980392" id="Fill-60" fill="#CBA285"></path>
                <path d="M295.135508,215.376531 C295.368581,214.789909 298.083931,214.00529 298.585612,213.644049 C300.768971,212.071651 303.57107,211.33969 303.545986,208.195947 C303.535534,206.764674 303.029672,187.939075 300.361355,189.047021 C300.008088,189.194466 298.569935,195.124925 298.271016,195.366103 C297.7986,195.746301 296.180677,199.006948 296.180677,199.578825 L295.135508,200.632005 L292,200.632005 L294.090339,208.004268 L297.225847,209.057448 L293.045169,211.163809 C293.045169,211.163809 295.136553,215.373371 295.135508,215.376531" id="Fill-74" fill="#CBA285"></path>
                <path d="M285.135508,215.376531 C285.368581,214.789909 288.083931,214.00529 288.585612,213.644049 C290.768971,212.071651 293.57107,211.33969 293.545986,208.195947 C293.535534,206.764674 293.029672,187.939075 290.361355,189.047021 C290.008088,189.194466 288.569935,195.124925 288.271016,195.366103 C287.7986,195.746301 286.180677,199.006948 286.180677,199.578825 L285.135508,200.632005 L282,200.632005 L284.090339,208.004268 L287.225847,209.057448 L283.045169,211.163809 C283.045169,211.163809 285.136553,215.373371 285.135508,215.376531" id="Fill-74" fill="#CBA285" transform="translate(287.773077, 202.188265) scale(-1, 1) translate(-287.773077, -202.188265) "></path>
                <path d="M285,189 C288.437037,187 291.103704,186 293,186 C294.896296,186 297.562963,187 301,189 L299.933333,212 C296.614815,214 294.125926,215 292.466667,215 C290.807407,215 288.318519,214 285,212 L285,189 Z" id="Rectangle-7" fill="#CBA285"></path>
                <path d="M282.5,199 C281.937953,191.191008 281.771287,186.857675 282,186 C282.228713,185.142325 283.562047,184.475659 286,184 C285.333333,180.666667 287,179 291,179 C297,179 295.039889,181.963915 299,185 C301,186 301,185 303,186 C304.333333,186.666667 304.333333,191 303,199 C301.243872,193.895175 299.910538,190.728508 299,189.5 C296.56984,186.221202 301.5,191 295,192 C288.5,193 288.421741,187.737945 286,191 C285.086152,192.230942 283.919486,194.897608 282.5,199 Z" id="Path-4" fill="#4A4A4A"></path>
                <rect id="Rectangle-3" stroke="#4A4A4A" x="284.5" y="196.5" width="7" height="4"></rect>
                <rect id="Rectangle-3" stroke="#4A4A4A" x="293.5" y="196.5" width="7" height="4"></rect>
            </g>
        </g>
    </g>
</svg>