<?xml version="1.0" encoding="UTF-8"?>
<svg width="396px" height="417px" viewBox="0 0 396 417" version="1.1" xmlns="http://www.w3.org/2000/svg" xmlns:xlink="http://www.w3.org/1999/xlink">
    <!-- Generator: Sketch 49.3 (51167) - http://www.bohemiancoding.com/sketch -->
    <title>Group 6</title>
    <desc>Created with Sketch.</desc>
    <defs>
        <rect id="path-1" x="0" y="25" width="157" height="243"></rect>
        <filter x="-32.5%" y="-19.8%" width="165.0%" height="142.0%" filterUnits="objectBoundingBox" id="filter-2">
            <feOffset dx="0" dy="3" in="SourceAlpha" result="shadowOffsetOuter1"></feOffset>
            <feGaussianBlur stdDeviation="16.5" in="shadowOffsetOuter1" result="shadowBlurOuter1"></feGaussianBlur>
            <feColorMatrix values="0 0 0 0 0.607843137   0 0 0 0 0.588235294   0 0 0 0 0.588235294  0 0 0 0.5 0" type="matrix" in="shadowBlurOuter1"></feColorMatrix>
        </filter>
        <rect id="path-3" x="173" y="25" width="157" height="243"></rect>
        <filter x="-32.5%" y="-19.8%" width="165.0%" height="142.0%" filterUnits="objectBoundingBox" id="filter-4">
            <feOffset dx="0" dy="3" in="SourceAlpha" result="shadowOffsetOuter1"></feOffset>
            <feGaussianBlur stdDeviation="16.5" in="shadowOffsetOuter1" result="shadowBlurOuter1"></feGaussianBlur>
            <feColorMatrix values="0 0 0 0 0.607843137   0 0 0 0 0.588235294   0 0 0 0 0.588235294  0 0 0 0.5 0" type="matrix" in="shadowBlurOuter1"></feColorMatrix>
        </filter>
        <ellipse id="path-5" cx="87.2268293" cy="66.637037" rx="66.4585366" ry="66.637037"></ellipse>
        <filter x="-4.5%" y="-4.5%" width="109.0%" height="109.0%" filterUnits="objectBoundingBox" id="filter-6">
            <feOffset dx="0" dy="0" in="SourceAlpha" result="shadowOffsetOuter1"></feOffset>
            <feGaussianBlur stdDeviation="2" in="shadowOffsetOuter1" result="shadowBlurOuter1"></feGaussianBlur>
            <feColorMatrix values="0 0 0 0 0   0 0 0 0 0   0 0 0 0 0  0 0 0 0.5 0" type="matrix" in="shadowBlurOuter1"></feColorMatrix>
        </filter>
        <polygon id="path-7" points="0.0335296965 0.645088514 19.5683451 0.645088514 19.5683451 13.6024404 0.0335296965 13.6024404"></polygon>
    </defs>
    <g id="Landing-Page" stroke="none" stroke-width="1" fill="none" fill-rule="evenodd">
        <g id="Landing-Page-Copy-12" transform="translate(-189.000000, -1979.000000)">
            <g id="Group-6" transform="translate(222.000000, 1984.000000)">
                <g id="Rectangle-2">
                    <use fill="black" fill-opacity="1" filter="url(#filter-2)" xlink:href="#path-1"></use>
                    <use fill="#FFFFFF" fill-rule="evenodd" xlink:href="#path-1"></use>
                </g>
                <g id="Rectangle-2-Copy">
                    <use fill="black" fill-opacity="1" filter="url(#filter-4)" xlink:href="#path-3"></use>
                    <use fill="#FFFFFF" fill-rule="evenodd" xlink:href="#path-3"></use>
                </g>
                <text id="0" font-family="BalooThambi-Regular, Baloo Thambi" font-size="195" font-weight="normal" fill="#4A4A4A">
                    <tspan x="21" y="205">0</tspan>
                </text>
                <text id="7" font-family="BalooThambi-Regular, Baloo Thambi" font-size="195" font-weight="normal" fill="#4A4A4A">
                    <tspan x="206" y="205">7</tspan>
                </text>
                <g id="Group" transform="translate(84.000000, 156.000000)">
                    <polygon id="Path-2-Copy" fill="#0F72C9" points="123.419956 91.6259259 168.223171 204.420029 134.402246 189.817631 119.761808 224.9 74.7658537 111.620667"></polygon>
                    <polygon id="Path-2" fill="#0088FF" points="57.2641907 91.6259259 105.918293 111.620667 60.9223382 224.9 46.2819001 189.817631 12.4609756 204.420029"></polygon>
                    <g id="Oval">
                        <use fill="black" fill-opacity="1" filter="url(#filter-6)" xlink:href="#path-5"></use>
                        <use fill="#0088FF" fill-rule="evenodd" xlink:href="#path-5"></use>
                    </g>
                    <text id="#1" font-family="BalooThambi-Regular, Baloo Thambi" font-size="54.08" font-weight="normal" fill="#FFFFFF">
                        <tspan x="55.21672" y="81.9888889">#1</tspan>
                    </text>
                </g>
                <path d="M0.651639344,147 L158.105829,147" id="Line" stroke="#DFDFDF" stroke-width="1.3" stroke-linecap="square"></path>
                <path d="M173.651639,147 L331.105829,147" id="Line" stroke="#DFDFDF" stroke-width="1.3" stroke-linecap="square"></path>
                <g id="Group-5" transform="translate(330.500000, 312.000000) scale(-1, 1) translate(-330.500000, -312.000000) translate(299.000000, 212.000000)">
                    <polyline id="Fill-39" fill="#F9D4BB" points="24.8075997 62.4114676 17.4973865 63.4578092 9.14285714 60.3187845 12.2758056 55.0870767 13.3201218 51.9480519 19.5860188 51.9480519"></polyline>
                    <g id="Group-43" transform="translate(21.897959, 185.714286)">
                        <mask id="mask-8" fill="white">
                            <use xlink:href="#path-7"></use>
                        </mask>
                        <g id="Clip-42"></g>
                        <path d="M0.0483890005,7.5091749 C0.0431674197,9.00648968 0.038990155,10.5027581 0.0337685742,12.0000729 C0.032724258,12.1622558 0.032724258,12.3275778 0.0870286987,12.4803437 C0.645737848,14.0571804 3.61786166,13.5905121 4.7572106,13.3341584 C10.0654697,12.1423754 15.4228116,9.21471165 18.8450357,4.88704293 C19.7118181,3.78943062 19.9655869,2.45011342 18.6675019,1.59211333 C17.3558408,0.72469617 15.6149658,0.56460591 14.082954,0.676564458 C12.6898362,0.775966907 11.3259593,1.11288889 9.96939259,1.44667185" id="Fill-41" fill="#FFBA00" mask="url(#mask-8)"></path>
                    </g>
                    <path d="M10.4638389,186.084866 C10.4586173,187.58218 10.4544401,189.078449 10.4492185,190.575764 C10.4481742,190.737947 10.4481742,190.903269 10.5024786,191.056034 C11.0611877,192.632871 14.0333116,192.166203 15.1726605,191.909849 C20.4809196,190.718066 25.8382615,187.790402 29.2604856,183.462734 C30.127268,182.365121 30.3810368,181.025804 29.0829518,180.167804 C27.7712907,179.300387 26.0304157,179.140297 24.4984039,179.252255 C23.1052861,179.351658 20.1707577,180.519375 18.814191,180.853158" id="Fill-44" fill="#FFBA00"></path>
                    <path d="M7.28397725,122.619544 C6.70855904,122.829859 8.06930301,131.514494 8.13091766,132.344243 C8.37006606,135.589994 8.44734546,138.900619 8.17269031,142.145324 C7.92936464,145.018578 7.15552636,147.81231 6.78583844,150.668823 C6.04437396,156.40696 7.08660149,162.184858 7.77480585,167.883234 C8.17060167,171.165608 8.60399288,174.441703 9.07289084,177.712567 C9.30681766,179.349045 9.55118765,180.983431 9.80495648,182.61677 C9.96473685,183.650555 9.91356536,185.74847 10.6539855,186.555199 C10.8022784,186.718429 10.9881667,186.840851 11.1719663,186.962226 C14.1273811,188.918885 17.4535281,188.08809 18.0634087,184.426941 C18.2994242,183.008101 18.5521487,181.589262 18.7714551,180.16833 C18.7714551,180.165191 20.2199216,170.771137 20.2199216,170.771137 L25.0373521,133.08296 L18.7714551,119.480519 C18.7714551,119.480519 7.33619306,122.599664 7.28397725,122.619544" id="Fill-46" fill="#494E50"></path>
                    <path d="M32.6356075,113.528635 L32.6356075,151.196932 C32.3661739,156.199491 32.095696,161.203096 31.8262624,166.206701 C31.5369869,171.554553 31.2957498,176.905544 30.9960311,182.254442 C30.7547941,186.528747 30.8216303,192.350592 25.7295447,193.822794 C24.4607005,194.19006 21.8854168,194.057175 21.1752819,192.666587 C20.7867962,191.903804 21.0290776,190.856416 20.984172,190.026667 C20.8442336,187.427555 20.6917635,184.828442 20.5476478,182.228283 C20.416064,179.854134 20.373247,177.454873 20.1581179,175.089095 C19.805139,171.230187 18.873609,167.450801 18.5039211,163.593986 C17.922237,157.526252 19.4208307,151.544317 19.8469117,145.520529 C20.0975476,141.98494 19.6923529,138.44726 18.9675975,134.989101 C18.4203758,132.384756 18.166607,127.531824 15.3803714,126.454092 C13.2917391,125.646317 11.2041511,124.838541 9.11656307,124.030765 C8.3375032,123.729419 7.55008881,123.423887 6.87232762,122.935246 C4.81502477,121.454672 2.530061,117.747484 2.11442316,115.250913 C1.84498959,113.63013 1.57555602,112.010393 1.30612245,110.38961" id="Fill-48" fill="#585A5B"></path>
                    <path d="M39.1836735,83.9315486 C41.4707259,85.6601048 43.7577783,87.3897075 46.0448307,89.1172174 C46.9356324,89.7910613 47.9037135,90.4931565 49.0179988,90.5297785 C50.3275713,90.5737248 51.5160031,89.6518979 52.172878,88.515571 C53.3164042,86.5358927 54.1079958,83.9922364 54.8337956,81.8357264 C57.7578808,73.146906 58.4920351,69.9953252 58.8042856,68.055408 C59.4266981,64.1766198 63.5517469,61.7627098 62.5429375,57.6129191 C61.6876426,54.0993041 58.2132027,54.4644773 55.3434218,54.6632822 C55.0593678,54.6831627 54.7617377,54.7072286 54.521545,54.8610408 C54.3189477,54.9918335 54.181098,55.2000555 54.0578686,55.4051384 C53.4782732,56.3677726 52.8715255,57.6055947 52.7221883,58.7408753 C52.5394329,60.1325096 52.7054792,61.5680902 53.2025737,62.8802026 C53.9179303,64.7709418 52.7827586,66.6899322 52.0809781,68.3902373 C51.3436909,70.1794813 50.9176099,72.0880084 50.1207967,73.8552793 C49.8085462,74.5479574 49.4096174,75.6675429 48.780939,76.1425819 C47.8776056,76.8237503 47.4473473,76.4303259 46.3351506,76.5077551 C45.4485262,76.571582 44.7759865,77.3040211 44.2016127,77.9841431 C42.5286182,79.9669604 40.856668,81.9487313 39.1836735,83.9315486" id="Fill-50" fill="#F9D4BB"></path>
                    <path d="M2.58317811,57.8550329 C2.13516647,58.2599671 1.85633406,58.8291769 1.59316638,59.3785062 C-0.185304052,63.0940652 -0.449516043,66.1640313 0.674168154,70.0878122 C2.44637269,76.2769226 3.44578326,82.7705183 3.50844223,89.2138897 C3.57214552,95.8518806 1.77278876,102.331874 1.31537828,108.929058 C1.27047269,109.575697 1.24332046,110.24117 1.45949391,110.851187 C2.58422242,114.026834 7.11237733,114.57407 9.83177663,115.643431 C12.4686749,116.67931 15.0658893,117.81459 17.6161093,119.046134 C23.1729157,121.732093 26.5283035,120.670056 30.9144314,116.493061 C31.7770366,115.671683 32.660528,114.821007 33.1503123,113.734904 C34.4369098,110.882577 32.885056,107.038318 32.158212,104.190177 C31.3384238,100.978954 30.3891404,97.6369393 30.6335104,94.2865536 C30.7859805,92.1917778 32.2845742,90.0949093 32.7200541,88.0283847 C32.9184741,87.0898163 32.9926206,83.958116 33.6839579,83.3397282 C34.5517846,82.5622964 36.8492802,84.0470551 37.9009066,84.4718697 C38.1504981,84.5723185 38.4105329,84.6759063 38.6799664,84.6602112 C39.0256351,84.6413771 39.3274425,84.4310624 39.6041862,84.2238868 C42.2097551,82.2839695 44.4863643,79.8983107 46.3055631,77.2039812 C48.5800837,73.8326687 40.1524522,68.9357901 38.1839163,67.6540217 C35.7036654,66.040563 33.1377805,64.5620824 30.5489208,63.1327798 C28.8237104,62.180609 21.1636514,61.1792601 19.6399941,61.9190236 C17.8531691,62.7874871 16.3148914,62.8251554 14.4267678,62.0717894 C13.479573,61.6951065 12.5522202,61.2033259 11.8619273,60.4510064 C10.1743123,58.6104915 11.1622354,56.5638474 11.8337307,54.5454545 C11.5454995,55.4128717 4.94855423,56.8390353 3.96585271,57.1665402 C3.53768308,57.309889 3.10115893,57.4553304 2.73982553,57.7252866 C2.68552109,57.7660939 2.63330528,57.8100402 2.58317811,57.8550329" id="Fill-52" fill="#FFBA00"></path>
                    <path d="M20.1125403,54.776683 C20.3454228,54.1938708 23.0585562,53.4143463 23.559828,53.0554511 C25.7414045,51.4932632 28.5412161,50.7660558 28.5161525,47.6427262 C28.5057094,46.220748 28.0002604,27.5173925 25.3341212,28.6181438 C24.9811423,28.7646316 23.5441633,34.656581 23.2454888,34.8961932 C22.7734579,35.2739225 21.1568565,38.513396 21.1568565,39.0815595 L20.1125403,40.1279011 L16.9795918,40.1279011 L19.0682242,47.452292 L22.2011727,48.4986336 L18.023908,50.5913167 C18.023908,50.5913167 20.1135847,54.773544 20.1125403,54.776683" id="Fill-54" fill="#F9D4BB"></path>
                    <polygon id="Fill-56" fill="#F9D4BB" points="19.3300305 23.0195145 22.462979 13.6024404 23.5072951 10.4634157 23.5072951 0 30.8175083 0 33.9504568 2.09268314 32.9061406 7.32439098 29.7731921 13.6024404 26.6402436 33.4829302 19.3300305 31.390247 18.2857143 26.1585392"></polygon>
                    <path d="M25.0891616,34.6758915 C25.694865,33.0205792 25.91626,31.2595863 26.2681946,29.4954544 C26.3151888,29.2359617 24.9554891,28.0682445 24.7142521,27.830725 C23.6260746,26.7634566 22.3217238,26.0927517 20.8878777,25.6051565 C17.1492258,24.3348978 12.9542077,24.36001 9.2124229,25.7181614 C5.59386738,27.0334127 1.78837927,29.8229593 0.346178643,33.5081743 C0.328425268,33.5563061 0.311716209,33.6044378 0.293962834,33.6515231 C-0.236549779,35.194877 0.119562034,36.5823259 0.0871882333,38.169626 C0.0255735794,41.1590239 0.651118964,43.1020802 2.31889188,45.5494731 C4.07125441,48.1182417 5.60953213,50.8481468 7.00787147,53.624091 C7.14780984,53.9024179 7.29192547,54.1891154 7.53002956,54.3910594 C8.8312475,55.4939034 10.2943345,56.8122938 12.1197991,56.6082571 C15.1504046,56.2692425 18.2478464,55.4729765 20.6717042,53.5508471 C21.883111,52.5892592 22.2872613,51.1892542 22.9545794,49.8541223 C23.0182826,49.7264687 23.0840746,49.5768418 23.0308144,49.4429101 C22.9911304,49.341415 22.8908761,49.2754954 22.7937547,49.2210857 C21.6293421,48.5639832 20.1307484,48.4154027 19.2702319,47.3910343 C18.8002896,46.8322879 18.6029139,46.0977561 18.4441778,45.3831048 C18.2405362,44.4633706 18.0807558,43.5331729 17.9627481,42.5977436 C17.949172,42.4868313 17.9355959,42.3696411 17.9794571,42.2650069 C18.1632568,41.8286825 20.053469,42.0515533 20.4461319,42.0536459 C20.6529065,42.0557386 20.8743015,42.0525996 21.0445251,41.934363 C21.1708873,41.8475166 21.2512997,41.7093996 21.3264904,41.5765142 C22.3008374,39.8563286 23.6845564,38.0712699 24.3748493,36.2276161 C24.6630806,35.7232794 24.8959631,35.2053404 25.0891616,34.6758915" id="Fill-58" fill="#83544E"></path>
                </g>
            </g>
        </g>
    </g>
</svg>