<?xml version="1.0" encoding="UTF-8"?>
<svg width="82px" height="82px" viewBox="0 0 82 82" version="1.1" xmlns="http://www.w3.org/2000/svg" xmlns:xlink="http://www.w3.org/1999/xlink">
    <!-- Generator: Sketch 49.3 (51167) - http://www.bohemiancoding.com/sketch -->
    <title>Group 4 Copy</title>
    <desc>Created with Sketch.</desc>
    <defs></defs>
    <g id="Landing-Page" stroke="none" stroke-width="1" fill="none" fill-rule="evenodd">
        <g id="Landing-Page-Copy-12" transform="translate(-870.000000, -1275.000000)">
            <g id="Group-4-Copy" transform="translate(870.000000, 1275.000000)">
                <circle id="Oval-2" fill="#2298FF" cx="41" cy="41" r="41"></circle>
                <path d="M41,81.9648594 C63.6436747,81.9648594 82,63.6164006 82,40.9824297 C82,18.3484588 63.6436747,0 41,0 C41,0 41,83.9640023 41,81.9648594 Z" id="Oval-2-Copy-3" fill="#1F89E5"></path>
                <g id="Group-2" transform="translate(23.000000, 22.000000)">
                    <g id="thumbs-up" fill="#FFFFFF">
                        <path d="M34.7240553,21.2941353 C35.5373553,20.3232838 36,18.719764 36,17.1922404 C36,16.1833908 35.7888725,15.299935 35.3886481,14.6368682 C34.8672548,13.7743113 34.03376,13.299335 33.0423785,13.299335 L28.2360141,13.299335 C30.8521597,8.37668117 31.5130807,4.6680666 30.2004182,2.26658667 C29.2843082,0.592770361 27.6063032,0 26.4460197,0 C25.9870468,0 25.5978377,0.351482426 25.5372533,0.822658867 C25.2086287,3.32863357 23.356214,6.31908405 20.4555051,9.02644868 C17.6759651,11.619819 14.2612066,13.6926154 10.7509817,14.9351532 C10.3085318,13.9700015 9.3593758,13.3012349 8.26151257,13.3012349 L2.75383752,13.3012349 C1.2355551,13.3012349 0,14.579871 0,16.1510924 L0,33.2502375 C0,34.8214589 1.2355551,36.100095 2.75383752,36.100095 L8.26151257,36.100095 C9.4254679,36.100095 10.4205212,35.3496325 10.8244174,34.2913854 C14.4246009,34.7587621 15.779489,35.5073246 17.0921516,36.2330883 C18.7352746,37.1412429 20.2847672,38 25.3591718,38 C26.6810138,38 27.9257484,37.6428179 28.8657249,36.9949503 C29.7836708,36.3622819 30.3711561,35.4731263 30.5657606,34.4433778 C31.2982814,34.1355932 31.9481871,33.4250287 32.4457137,32.3686816 C32.9303891,31.340833 33.2443266,30.0279986 33.2443266,29.0229489 C33.2443266,28.8348583 33.2333112,28.6619669 33.2131164,28.5023749 C33.677597,28.1489926 34.0943444,27.6037198 34.4376562,26.8855557 C34.9333469,25.8501075 35.2307614,24.5524724 35.2307614,23.4163292 C35.2307614,22.6107695 35.0857259,21.940103 34.8011627,21.419529 C34.7772961,21.3777311 34.7534295,21.3359332 34.729563,21.2960352 L34.7240553,21.2941353 Z M8.25784079,34.1982901 L2.75016574,34.1982901 C2.24345964,34.1982901 1.8322199,33.7727114 1.8322199,33.2483376 L1.8322199,16.1491925 C1.8322199,15.6248188 2.24345964,15.19924 2.75016574,15.19924 L8.25784079,15.19924 C8.76454689,15.19924 9.17578663,15.6248188 9.17578663,16.1491925 L9.17578663,33.2464377 C9.17578663,33.2464377 9.17578663,33.2483376 9.17578663,33.2483376 C9.17578663,33.7727114 8.76454689,34.1982901 8.25784079,34.1982901 Z" id="Shape" fill-rule="nonzero"></path>
                        <rect id="Rectangle-2" x="1.63636364" y="14.8695652" width="8.18181818" height="19.826087"></rect>
                    </g>
                    <path d="M11,11.84375 L11,37.2124376" id="Line" stroke="#0088FF" stroke-linecap="square"></path>
                </g>
            </g>
        </g>
    </g>
</svg>