<?xml version="1.0" encoding="UTF-8"?>
<svg width="381px" height="291px" viewBox="0 0 381 291" version="1.1" xmlns="http://www.w3.org/2000/svg" xmlns:xlink="http://www.w3.org/1999/xlink">
    <!-- Generator: Sketch 49.3 (51167) - http://www.bohemiancoding.com/sketch -->
    <title>Group 12</title>
    <desc>Created with Sketch.</desc>
    <defs>
        <rect id="path-1" x="109.363938" y="0.53287741" width="107" height="32.184551"></rect>
        <filter x="-47.7%" y="-149.1%" width="195.3%" height="416.9%" filterUnits="objectBoundingBox" id="filter-2">
            <feOffset dx="0" dy="3" in="SourceAlpha" result="shadowOffsetOuter1"></feOffset>
            <feGaussianBlur stdDeviation="16.5" in="shadowOffsetOuter1" result="shadowBlurOuter1"></feGaussianBlur>
            <feColorMatrix values="0 0 0 0 0.607843137   0 0 0 0 0.588235294   0 0 0 0 0.588235294  0 0 0 0.5 0" type="matrix" in="shadowBlurOuter1"></feColorMatrix>
        </filter>
        <ellipse id="path-3" cx="21.1357317" cy="15.8752941" rx="16.1034146" ry="15.8752941"></ellipse>
        <filter x="-4.7%" y="-4.7%" width="109.3%" height="109.4%" filterUnits="objectBoundingBox" id="filter-4">
            <feOffset dx="0" dy="0" in="SourceAlpha" result="shadowOffsetOuter1"></feOffset>
            <feGaussianBlur stdDeviation="0.5" in="shadowOffsetOuter1" result="shadowBlurOuter1"></feGaussianBlur>
            <feColorMatrix values="0 0 0 0 0   0 0 0 0 0   0 0 0 0 0  0 0 0 0.5 0" type="matrix" in="shadowBlurOuter1"></feColorMatrix>
        </filter>
        <rect id="path-5" x="4.77547028" y="126.438111" width="80.0871385" height="32.184551"></rect>
        <filter x="-63.7%" y="-149.1%" width="227.4%" height="416.9%" filterUnits="objectBoundingBox" id="filter-6">
            <feOffset dx="0" dy="3" in="SourceAlpha" result="shadowOffsetOuter1"></feOffset>
            <feGaussianBlur stdDeviation="16.5" in="shadowOffsetOuter1" result="shadowBlurOuter1"></feGaussianBlur>
            <feColorMatrix values="0 0 0 0 0.607843137   0 0 0 0 0.588235294   0 0 0 0 0.588235294  0 0 0 0.5 0" type="matrix" in="shadowBlurOuter1"></feColorMatrix>
        </filter>
        <ellipse id="path-7" cx="21.1357317" cy="15.8752941" rx="16.1034146" ry="15.8752941"></ellipse>
        <filter x="-4.7%" y="-4.7%" width="109.3%" height="109.4%" filterUnits="objectBoundingBox" id="filter-8">
            <feOffset dx="0" dy="0" in="SourceAlpha" result="shadowOffsetOuter1"></feOffset>
            <feGaussianBlur stdDeviation="0.5" in="shadowOffsetOuter1" result="shadowBlurOuter1"></feGaussianBlur>
            <feColorMatrix values="0 0 0 0 0   0 0 0 0 0   0 0 0 0 0  0 0 0 0.5 0" type="matrix" in="shadowBlurOuter1"></feColorMatrix>
        </filter>
        <rect id="path-9" x="218.724558" y="134.388714" width="99.9987765" height="32.184551"></rect>
        <filter x="-51.0%" y="-149.1%" width="202.0%" height="416.9%" filterUnits="objectBoundingBox" id="filter-10">
            <feOffset dx="0" dy="3" in="SourceAlpha" result="shadowOffsetOuter1"></feOffset>
            <feGaussianBlur stdDeviation="16.5" in="shadowOffsetOuter1" result="shadowBlurOuter1"></feGaussianBlur>
            <feColorMatrix values="0 0 0 0 0.607843137   0 0 0 0 0.588235294   0 0 0 0 0.588235294  0 0 0 0.5 0" type="matrix" in="shadowBlurOuter1"></feColorMatrix>
        </filter>
        <ellipse id="path-11" cx="21.1357317" cy="15.8752941" rx="16.1034146" ry="15.8752941"></ellipse>
        <filter x="-4.7%" y="-4.7%" width="109.3%" height="109.4%" filterUnits="objectBoundingBox" id="filter-12">
            <feOffset dx="0" dy="0" in="SourceAlpha" result="shadowOffsetOuter1"></feOffset>
            <feGaussianBlur stdDeviation="0.5" in="shadowOffsetOuter1" result="shadowBlurOuter1"></feGaussianBlur>
            <feColorMatrix values="0 0 0 0 0   0 0 0 0 0   0 0 0 0 0  0 0 0 0.5 0" type="matrix" in="shadowBlurOuter1"></feColorMatrix>
        </filter>
    </defs>
    <g id="Landing-Page" stroke="none" stroke-width="1" fill="none" fill-rule="evenodd">
        <g id="Kudos" transform="translate(-827.000000, -2026.000000)">
            <g id="Group-12" transform="translate(856.000000, 2055.000000)">
                <path d="M197.976962,53.1154915 L201.11247,43.6368678 L202.15764,40.4773266 L202.15764,29.9455226 L209.473825,29.9455226 L212.609333,32.0518834 L211.564164,37.3177854 L208.428656,43.6368678 L206.723772,77.9234616 L198.238491,77.9234616 C197.506865,65.7912018 197.13366,59.0238764 197.118876,57.6214853 C197.104092,56.2190942 197.390121,54.7170962 197.976962,53.1154915 Z" id="Fill-76" fill="#CBA285" transform="translate(204.863832, 53.934492) scale(-1, 1) rotate(-21.000000) translate(-204.863832, -53.934492) "></path>
                <path d="M147,133.159541 L165,133.159541 C168.644919,145.159541 164.009287,177.307575 163,183 C161.856768,189.447883 158.801007,207.54146 158.660955,210.15756 C158.616012,210.992732 158.858492,212.046966 158.469689,212.814735 C157.758973,214.214411 155.181586,214.348165 153.911705,213.978499 C148.815459,212.496674 148.88235,206.636778 148.640916,202.334536 C148.340952,196.950678 148.099518,191.564714 147.810006,186.181909 C147.540353,181.1456 147.269654,176.109291 147,171.074036 L147,133.159541 Z" id="Fill-68" fill="#494E50"></path>
                <path d="M141.014871,213.90895 C141.009646,215.416051 141.005465,216.922099 141.000239,218.4292 C140.999194,218.592443 140.999194,218.758845 141.053543,218.91261 C141.612708,220.499753 144.58726,220.030034 145.72754,219.772005 C151.040136,218.572433 156.401855,215.625634 159.826875,211.26968 C160.694365,210.164893 160.948342,208.816822 159.649196,207.953215 C158.336463,207.080128 156.594166,206.918991 155.060903,207.031682 C153.666647,207.131734 152.301655,207.470858 150.94398,207.806822" id="Fill-62" fill="#D61C71" transform="translate(150.775388, 213.521167) scale(-1, 1) rotate(39.000000) translate(-150.775388, -213.521167) "></path>
                <path d="M257,173.159541 L275,173.159541 C278.644919,185.159541 274.009287,217.307575 273,223 C271.856768,229.447883 268.801007,247.54146 268.660955,250.15756 C268.616012,250.992732 268.858492,252.046966 268.469689,252.814735 C267.758973,254.214411 265.181586,254.348165 263.911705,253.978499 C258.815459,252.496674 258.88235,246.636778 258.640916,242.334536 C258.340952,236.950678 258.099518,231.564714 257.810006,226.181909 C257.540353,221.1456 257.269654,216.109291 257,211.074036 L257,173.159541 Z" id="Fill-68" fill="#494E50"></path>
                <path d="M251.014871,253.90895 C251.009646,255.416051 251.005465,256.922099 251.000239,258.4292 C250.999194,258.592443 250.999194,258.758845 251.053543,258.91261 C251.612708,260.499753 254.58726,260.030034 255.72754,259.772005 C261.040136,258.572433 266.401855,255.625634 269.826875,251.26968 C270.694365,250.164893 270.948342,248.816822 269.649196,247.953215 C268.336463,247.080128 266.594166,246.918991 265.060903,247.031682 C263.666647,247.131734 262.301655,247.470858 260.94398,247.806822" id="Fill-62" fill="#F8B70A" transform="translate(260.775388, 253.521167) scale(-1, 1) rotate(39.000000) translate(-260.775388, -253.521167) "></path>
                <path d="M156,45 L151,50 C148.570383,55.0722852 148.23705,61.9056185 150,70.5 C151.76295,79.0943815 154.76295,87.5943815 159,96 C158.767803,90.8351293 158.767803,87.1684627 159,85 C159.539226,79.9642144 161.218692,76.0457951 161,72 C160.640052,65.3409615 159.306719,59.6742949 157,55" id="Path-5" fill="#4A4A4A"></path>
                <path d="M179,45 L174,50 C171.570383,55.0722852 171.23705,61.9056185 173,70.5 C174.76295,79.0943815 177.76295,87.5943815 182,96 C181.767803,90.8351293 181.767803,87.1684627 182,85 C182.539226,79.9642144 184.218692,76.0457951 184,72 C183.640052,65.3409615 182.306719,59.6742949 180,55" id="Path-5" fill="#4A4A4A" transform="translate(177.953778, 70.500000) scale(-1, 1) translate(-177.953778, -70.500000) "></path>
                <g id="Rectangle-2-Copy-3">
                    <use fill="black" fill-opacity="1" filter="url(#filter-2)" xlink:href="#path-1"></use>
                    <use fill="#FFFFFF" fill-rule="evenodd" xlink:href="#path-1"></use>
                </g>
                <path d="M125.03273,18.5605381 C124.911702,18.6591933 124.755765,18.7376679 124.564914,18.7959641 C124.374063,18.8542604 124.152958,18.8834081 123.901593,18.8834081 C123.56644,18.8834081 123.289477,18.8430497 123.070696,18.7623318 C122.851915,18.6816139 122.709943,18.5426019 122.644774,18.3452915 C122.384099,17.5560499 122.169977,16.9170428 122.0024,16.4282511 C121.834824,15.9394594 121.704488,15.5112126 121.61139,15.1434978 L121.541567,15.1434978 C121.513637,15.6726484 121.49269,16.1547063 121.478726,16.5896861 C121.464761,17.0246659 121.455451,17.4484284 121.450796,17.8609865 C121.446142,18.2735447 121.436832,18.6905809 121.422867,19.1121076 C121.408902,19.5336344 121.387956,19.9999974 121.360026,20.5112108 C121.238999,20.556054 121.080734,20.5941702 120.885228,20.6255605 C120.689722,20.6569508 120.494219,20.6726457 120.298713,20.6726457 C119.889081,20.6726457 119.570224,20.6098661 119.342134,20.4843049 C119.114044,20.3587438 119,20.1300465 119,19.7982063 L119.404975,12.9372197 C119.479453,12.8206272 119.642373,12.6950679 119.893738,12.5605381 C120.145103,12.4260083 120.49887,12.3587444 120.955051,12.3587444 C121.448471,12.3587444 121.834823,12.4327347 122.114117,12.5807175 C122.393412,12.7287003 122.598225,12.9686082 122.728562,13.3004484 C122.81235,13.5156961 122.90312,13.7623304 123.000873,14.0403587 C123.098626,14.318387 123.196377,14.6053797 123.29413,14.9013453 C123.391884,15.1973109 123.487308,15.4910299 123.580406,15.7825112 L123.83177,16.5695067 L123.901593,16.5695067 C124.125028,15.8161397 124.348461,15.0874475 124.571896,14.3834081 C124.795332,13.6793687 125.000145,13.0896885 125.186341,12.6143498 C125.325988,12.5426005 125.505199,12.482063 125.72398,12.4327354 C125.942761,12.3834078 126.18714,12.3587444 126.457124,12.3587444 C126.913305,12.3587444 127.285692,12.4237662 127.574296,12.5538117 C127.862901,12.6838572 128.030475,12.8699539 128.077024,13.1121076 C128.114263,13.2914807 128.153829,13.5672627 128.195723,13.9394619 C128.237617,14.3116611 128.281838,14.7309394 128.328388,15.1973094 C128.374937,15.6636795 128.421485,16.1569481 128.468034,16.67713 C128.514583,17.197312 128.558804,17.697307 128.600698,18.17713 C128.642592,18.6569531 128.677504,19.0964106 128.705433,19.4955157 C128.733363,19.8946208 128.751982,20.2017926 128.761292,20.4170404 C128.603025,20.5067269 128.437778,20.5717487 128.265547,20.6121076 C128.093315,20.6524666 127.87221,20.6726457 127.602226,20.6726457 C127.248453,20.6726457 126.950543,20.6143504 126.708488,20.4977578 C126.466433,20.3811653 126.336097,20.1524681 126.317478,19.8116592 C126.261619,18.8340758 126.226707,17.9551609 126.212743,17.1748879 C126.198778,16.3946149 126.177831,15.739913 126.149902,15.2107623 L126.080079,15.2107623 C125.98698,15.5605399 125.85199,15.9999974 125.675104,16.529148 C125.498217,17.0582986 125.284095,17.7354219 125.03273,18.5605381 Z M133.034475,19.1121076 C133.192742,19.1121076 133.367298,19.0964127 133.55815,19.0650224 C133.749001,19.0336321 133.890973,18.9910317 133.984072,18.9372197 L133.984072,17.8609865 L132.978617,17.941704 C132.717942,17.9596413 132.503819,18.0134525 132.336243,18.103139 C132.168666,18.1928256 132.084879,18.3273534 132.084879,18.5067265 C132.084879,18.6860996 132.157029,18.831838 132.301331,18.9439462 C132.445633,19.0560544 132.690012,19.1121076 133.034475,19.1121076 Z M132.922758,13.8251121 C133.425488,13.8251121 133.883989,13.874439 134.298276,13.9730942 C134.712563,14.0717494 135.066331,14.2219721 135.35959,14.4237668 C135.652849,14.6255615 135.878609,14.8811644 136.036875,15.190583 C136.195142,15.5000015 136.274274,15.8654687 136.274274,16.2869955 L136.274274,19.3004484 C136.274274,19.5336335 136.206779,19.7242145 136.071787,19.8721973 C135.936795,20.0201801 135.776203,20.1479815 135.590007,20.2556054 C134.984869,20.6053829 134.133033,20.7802691 133.034475,20.7802691 C132.541055,20.7802691 132.096518,20.7354265 131.700851,20.6457399 C131.305184,20.5560534 130.965381,20.4215256 130.681431,20.2421525 C130.397482,20.0627794 130.178705,19.8340821 130.025093,19.5560538 C129.871481,19.2780255 129.794676,18.9551588 129.794676,18.5874439 C129.794676,17.9686068 129.985524,17.4932752 130.367227,17.161435 C130.748929,16.8295948 131.340093,16.6233188 132.140738,16.5426009 L133.970107,16.3542601 L133.970107,16.2600897 C133.970107,15.9999987 133.851409,15.8139019 133.614008,15.7017937 C133.376608,15.5896855 133.034477,15.5336323 132.587606,15.5336323 C132.233833,15.5336323 131.889375,15.5695064 131.554222,15.6412556 C131.219069,15.7130048 130.916504,15.80269 130.64652,15.9103139 C130.525492,15.829596 130.423086,15.7062789 130.339297,15.5403587 C130.255509,15.3744386 130.213616,15.2017946 130.213616,15.0224215 C130.213616,14.7892365 130.271801,14.6031397 130.388174,14.4641256 C130.504546,14.3251114 130.683758,14.2062785 130.925813,14.1076233 C131.195797,14.0089681 131.514654,13.93722 131.882391,13.8923767 C132.250129,13.8475334 132.596915,13.8251121 132.922758,13.8251121 Z M140.100589,20.5515695 C140.007491,20.5784755 139.860864,20.605381 139.660703,20.632287 C139.460542,20.659193 139.253401,20.6726457 139.039276,20.6726457 C138.83446,20.6726457 138.650594,20.659193 138.487672,20.632287 C138.32475,20.605381 138.187432,20.5515699 138.075715,20.470852 C137.963997,20.3901341 137.877882,20.2802698 137.817369,20.1412556 C137.756855,20.0022415 137.726598,19.8206289 137.726598,19.5964126 L137.726598,15.5605381 C137.726598,15.3542591 137.766164,15.1771308 137.845298,15.029148 C137.924431,14.8811652 138.038475,14.7488795 138.187432,14.632287 C138.336389,14.5156945 138.520255,14.4103144 138.739036,14.3161435 C138.957816,14.2219726 139.192885,14.1390138 139.44425,14.0672646 C139.695615,13.9955153 139.956286,13.9394621 140.226271,13.8991031 C140.496256,13.8587442 140.766236,13.838565 141.036221,13.838565 C141.483092,13.838565 141.83686,13.9215238 142.097534,14.0874439 C142.358209,14.2533641 142.488545,14.5246618 142.488545,14.9013453 C142.488545,15.0269065 142.469925,15.1502236 142.432686,15.2713004 C142.395447,15.3923773 142.348898,15.5022417 142.293039,15.6008969 C142.097533,15.6008969 141.897375,15.6098654 141.692559,15.6278027 C141.487744,15.64574 141.287586,15.6726456 141.092079,15.7085202 C140.896573,15.7443948 140.712707,15.782511 140.540476,15.82287 C140.368244,15.8632289 140.221617,15.9103136 140.100589,15.9641256 L140.100589,20.5515695 Z M150.09928,19.3811659 C150.052731,19.8026927 149.924723,20.1255594 149.715252,20.3497758 C149.505781,20.5739922 149.200889,20.6860987 148.800567,20.6860987 C148.502653,20.6860987 148.237328,20.6165926 148.004582,20.4775785 C147.771837,20.3385643 147.520476,20.1031407 147.250491,19.7713004 L145.86799,18.103139 L145.86799,20.5515695 C145.765582,20.5695068 145.6143,20.5941702 145.414139,20.6255605 C145.213978,20.6569508 145.011493,20.6726457 144.806677,20.6726457 C144.601861,20.6726457 144.417995,20.659193 144.255073,20.632287 C144.092151,20.605381 143.954834,20.5515699 143.843116,20.470852 C143.731398,20.3901341 143.645284,20.2802698 143.58477,20.1412556 C143.524256,20.0022415 143.494,19.8206289 143.494,19.5964126 L143.494,11.8071749 C143.596408,11.7802689 143.74769,11.7511212 143.947851,11.7197309 C144.148012,11.6883407 144.350497,11.6726457 144.555313,11.6726457 C144.760129,11.6726457 144.943995,11.6860985 145.106917,11.7130045 C145.269839,11.7399104 145.407156,11.7937216 145.518874,11.8744395 C145.630592,11.9551574 145.716706,12.0650217 145.77722,12.2040359 C145.837734,12.34305 145.86799,12.5246626 145.86799,12.7488789 L145.86799,16.3004484 L148.269911,13.9327354 C148.754021,13.9327354 149.1427,14.0358734 149.435959,14.2421525 C149.729218,14.4484315 149.875846,14.7085186 149.875846,15.0224215 C149.875846,15.1569513 149.852571,15.2802685 149.806022,15.3923767 C149.759473,15.5044849 149.687323,15.6188335 149.58957,15.735426 C149.491817,15.8520185 149.366136,15.9753357 149.212525,16.1053812 C149.058913,16.2354267 148.879701,16.3856494 148.674885,16.5560538 L147.864936,17.2286996 L150.09928,19.3811659 Z M154.805368,20.7802691 C154.256089,20.7802691 153.746384,20.7062788 153.276238,20.558296 C152.806093,20.4103132 152.396467,20.1883423 152.047349,19.8923767 C151.698231,19.5964111 151.423595,19.2242175 151.223434,18.7757848 C151.023273,18.327352 150.923194,17.8026936 150.923194,17.2017937 C150.923194,16.6098625 151.023273,16.100899 151.223434,15.6748879 C151.423595,15.2488768 151.686594,14.8991045 152.012437,14.6255605 C152.338281,14.3520166 152.710668,14.1502249 153.129609,14.0201794 C153.548551,13.8901339 153.976796,13.8251121 154.414357,13.8251121 C154.907778,13.8251121 155.356969,13.8968603 155.761946,14.0403587 C156.166923,14.1838572 156.516036,14.3811647 156.809295,14.632287 C157.102554,14.8834093 157.330641,15.1838548 157.493563,15.5336323 C157.656485,15.8834098 157.737945,16.2645719 157.737945,16.67713 C157.737945,16.9820643 157.649503,17.2152458 157.472616,17.3766816 C157.29573,17.5381174 157.049023,17.6412554 156.73249,17.6860987 L153.283221,18.1838565 C153.385629,18.4798221 153.595096,18.701793 153.91163,18.8497758 C154.228164,18.9977586 154.591241,19.0717489 155.000873,19.0717489 C155.382575,19.0717489 155.743325,19.0246641 156.083133,18.9304933 C156.422942,18.8363224 156.699904,18.726458 156.91403,18.6008969 C157.062987,18.6905834 157.188668,18.8161427 157.291076,18.9775785 C157.393484,19.1390143 157.444687,19.3094161 157.444687,19.4887892 C157.444687,19.8923787 157.249184,20.1928241 156.858172,20.3901345 C156.560257,20.5426017 156.225109,20.6457396 155.852717,20.6995516 C155.480324,20.7533635 155.131211,20.7802691 154.805368,20.7802691 Z M154.414357,15.4932735 C154.190922,15.4932735 153.997746,15.5291476 153.834824,15.6008969 C153.671903,15.6726461 153.53924,15.7645734 153.436832,15.8766816 C153.334424,15.9887898 153.257619,16.1143491 153.206415,16.2533632 C153.155211,16.3923774 153.124955,16.5336316 153.115645,16.67713 L155.5036,16.3004484 C155.475671,16.1210753 155.373264,15.9417049 155.196378,15.7623318 C155.019491,15.5829587 154.758821,15.4932735 154.414357,15.4932735 Z M161.257037,18.3183857 C161.257037,18.5515707 161.333842,18.7174883 161.487454,18.8161435 C161.641066,18.9147987 161.857516,18.9641256 162.13681,18.9641256 C162.276457,18.9641256 162.420757,18.9529149 162.569714,18.9304933 C162.718671,18.9080716 162.849007,18.8789239 162.960724,18.8430493 C163.044513,18.9417045 163.116663,19.0515689 163.177177,19.1726457 C163.23769,19.2937226 163.267947,19.439461 163.267947,19.6098655 C163.267947,19.9506743 163.135284,20.2286985 162.869954,20.4439462 C162.604624,20.6591939 162.136813,20.7668161 161.466507,20.7668161 C160.647243,20.7668161 160.016513,20.5874457 159.574296,20.2286996 C159.13208,19.8699534 158.910975,19.2869996 158.910975,18.4798206 L158.910975,12.7219731 C159.013383,12.6950671 159.160011,12.6659194 159.350862,12.6345291 C159.541713,12.6031389 159.744199,12.5874439 159.958324,12.5874439 C160.367956,12.5874439 160.686812,12.65695 160.914903,12.7959641 C161.142993,12.9349783 161.257037,13.2286973 161.257037,13.67713 L161.257037,14.5381166 L163.086406,14.5381166 C163.142265,14.6367718 163.195796,14.7600889 163.247,14.9080717 C163.298204,15.0560546 163.323805,15.21973 163.323805,15.3991031 C163.323805,15.7130061 163.251655,15.9394612 163.107353,16.0784753 C162.963051,16.2174895 162.769875,16.2869955 162.52782,16.2869955 L161.257037,16.2869955 L161.257037,18.3183857 Z M164.413048,12.2107623 C164.413048,11.8699535 164.531747,11.5829608 164.769147,11.3497758 C165.006547,11.1165908 165.320749,11 165.711761,11 C166.102773,11 166.416975,11.1165908 166.654375,11.3497758 C166.891775,11.5829608 167.010473,11.8699535 167.010473,12.2107623 C167.010473,12.5515712 166.891775,12.8385639 166.654375,13.0717489 C166.416975,13.3049339 166.102773,13.4215247 165.711761,13.4215247 C165.320749,13.4215247 165.006547,13.3049339 164.769147,13.0717489 C164.531747,12.8385639 164.413048,12.5515712 164.413048,12.2107623 Z M166.898756,20.5515695 C166.796348,20.5695068 166.645066,20.5941702 166.444905,20.6255605 C166.244744,20.6569508 166.042259,20.6726457 165.837443,20.6726457 C165.632627,20.6726457 165.448761,20.659193 165.285839,20.632287 C165.122917,20.605381 164.9856,20.5515699 164.873882,20.470852 C164.762164,20.3901341 164.676049,20.2802698 164.615536,20.1412556 C164.555022,20.0022415 164.524765,19.8206289 164.524765,19.5964126 L164.524765,14.1210762 C164.627173,14.1031389 164.778456,14.0784755 164.978617,14.0470852 C165.178778,14.0156949 165.381263,14 165.586079,14 C165.790895,14 165.974761,14.0134528 166.137683,14.0403587 C166.300604,14.0672647 166.437922,14.1210758 166.54964,14.2017937 C166.661358,14.2825116 166.747472,14.392376 166.807986,14.5313901 C166.8685,14.6704043 166.898756,14.8520168 166.898756,15.0762332 L166.898756,20.5515695 Z M172.708051,16.4215247 C172.708051,16.1434964 172.626592,15.9394625 172.46367,15.809417 C172.300748,15.6793715 172.079644,15.6143498 171.800349,15.6143498 C171.614153,15.6143498 171.430287,15.6367711 171.248745,15.6816143 C171.067204,15.7264576 170.911267,15.7937215 170.78093,15.8834081 L170.78093,20.5515695 C170.687831,20.5784755 170.541204,20.605381 170.341043,20.632287 C170.140882,20.659193 169.933742,20.6726457 169.719616,20.6726457 C169.5148,20.6726457 169.330934,20.659193 169.168012,20.632287 C169.00509,20.605381 168.867773,20.5515699 168.756055,20.470852 C168.644337,20.3901341 168.558223,20.2802698 168.497709,20.1412556 C168.437195,20.0022415 168.406939,19.8206289 168.406939,19.5964126 L168.406939,15.5605381 C168.406939,15.3183844 168.460469,15.121077 168.567532,14.9686099 C168.674595,14.8161427 168.821222,14.6771307 169.007419,14.5515695 C169.323952,14.3363218 169.721941,14.1614357 170.201396,14.0269058 C170.680852,13.892376 171.213831,13.8251121 171.800349,13.8251121 C172.852358,13.8251121 173.6623,14.047083 174.230199,14.4910314 C174.798097,14.9349798 175.082042,15.5515656 175.082042,16.3408072 L175.082042,20.5515695 C174.988944,20.5784755 174.842317,20.605381 174.642156,20.632287 C174.441995,20.659193 174.234855,20.6726457 174.020729,20.6726457 C173.815913,20.6726457 173.632047,20.659193 173.469125,20.632287 C173.306203,20.605381 173.168886,20.5515699 173.057168,20.470852 C172.94545,20.3901341 172.859336,20.2802698 172.798822,20.1412556 C172.738308,20.0022415 172.708051,19.8206289 172.708051,19.5964126 L172.708051,16.4215247 Z M179.857953,13.8251121 C180.388613,13.8251121 180.870388,13.8901339 181.303295,14.0201794 C181.736201,14.1502249 182.101606,14.3183846 182.39952,14.5246637 C182.585716,14.6502248 182.732344,14.7892369 182.839407,14.941704 C182.946469,15.0941712 183,15.2914786 183,15.5336323 L183,20.2421525 C183,20.7174912 182.906903,21.127801 182.720707,21.4730942 C182.534511,21.8183874 182.280822,22.10538 181.959633,22.3340807 C181.638445,22.5627814 181.261403,22.7309412 180.828497,22.838565 C180.39559,22.9461889 179.932434,23 179.439014,23 C178.591821,23 177.926179,22.8901356 177.442069,22.6704036 C176.957958,22.4506715 176.715907,22.0941729 176.715907,21.6008969 C176.715907,21.3946178 176.760128,21.2130053 176.848571,21.0560538 C176.937014,20.8991024 177.037093,20.7802695 177.148811,20.6995516 C177.418795,20.84305 177.723687,20.9641251 178.063496,21.0627803 C178.403304,21.1614355 178.754744,21.2107623 179.117827,21.2107623 C179.620557,21.2107623 180.020873,21.1300457 180.318787,20.9686099 C180.616701,20.8071741 180.765656,20.547087 180.765656,20.1883408 L180.765656,19.9730942 C180.383953,20.13453 179.91847,20.2152466 179.36919,20.2152466 C178.950249,20.2152466 178.55226,20.1547091 178.175213,20.0336323 C177.798165,19.9125554 177.467672,19.7242165 177.183722,19.4686099 C176.899773,19.2130032 176.671686,18.8834101 176.499455,18.4798206 C176.327223,18.0762312 176.241108,17.5964153 176.241108,17.0403587 C176.241108,16.4932708 176.331878,16.0179392 176.513419,15.6143498 C176.694961,15.2107603 176.946322,14.8766829 177.26751,14.6121076 C177.588699,14.3475323 177.970396,14.1502249 178.412612,14.0201794 C178.854828,13.8901339 179.336604,13.8251121 179.857953,13.8251121 Z M180.723762,15.7757848 C180.658593,15.7399101 180.563169,15.7040361 180.437486,15.6681614 C180.311804,15.6322868 180.155867,15.6143498 179.969671,15.6143498 C179.51349,15.6143498 179.171359,15.7376669 178.943269,15.9843049 C178.715178,16.2309429 178.601135,16.5829574 178.601135,17.0403587 C178.601135,17.5605407 178.715178,17.9349764 178.943269,18.1636771 C179.171359,18.3923778 179.462286,18.5067265 179.816059,18.5067265 C180.197762,18.5067265 180.500326,18.4215255 180.723762,18.2511211 L180.723762,15.7757848 Z" id="Marketing" fill="#4A4A4A"></path>
                <g id="Group" transform="translate(183.000000, 5.000000)">
                    <polygon id="Path-2-Copy" fill="#0F72C9" points="29.9056046 21.8285294 40.7617683 48.7000656 32.5666981 45.2212591 29.0192074 53.5791176 18.1163415 26.5919825"></polygon>
                    <polygon id="Path-2" fill="#0088FF" points="13.8755539 21.8285294 25.6648171 26.5919825 14.7619512 53.5791176 11.2144604 45.2212591 3.01939024 48.7000656"></polygon>
                    <g id="Oval">
                        <use fill="black" fill-opacity="1" filter="url(#filter-4)" xlink:href="#path-3"></use>
                        <use fill="#0088FF" fill-rule="evenodd" xlink:href="#path-3"></use>
                    </g>
                    <path d="M19.7304456,19.9402561 C19.6093058,19.9575618 19.4989837,19.9683777 19.399476,19.9727041 C19.2999683,19.9770305 19.2026253,19.9791937 19.107444,19.9791937 C18.7440246,19.9791937 18.4757905,19.909972 18.3027336,19.7715265 C18.1296767,19.633081 18.0431496,19.4081105 18.0431496,19.0966081 C18.0431496,18.8975927 18.0691077,18.6726221 18.1210248,18.4216897 L18.1469832,18.2789185 L16.9788552,18.2789185 L16.6154376,19.9402561 C16.4942978,19.9575618 16.3839757,19.9683777 16.284468,19.9727041 C16.1849603,19.9770305 16.0876173,19.9791937 15.992436,19.9791937 C15.6290166,19.9791937 15.3607825,19.909972 15.1877256,19.7715265 C15.0146687,19.633081 14.9281416,19.4081105 14.9281416,19.0966081 C14.9281416,18.8975927 14.9540997,18.6726221 15.0060168,18.4216897 L15.0319752,18.2789185 L14.0585352,18.2789185 C14.015271,18.1837372 13.9676811,18.0647624 13.915764,17.9219905 C13.8638469,17.7792186 13.8378888,17.6342856 13.8378888,17.4871873 C13.8378888,17.1843378 13.9092737,16.9658568 14.0520456,16.8317377 C14.1948175,16.6976186 14.370035,16.6305601 14.5777032,16.6305601 L15.3953928,16.6305601 L15.6809352,15.3196609 L14.4089736,15.3196609 C14.3657094,15.2244796 14.3181195,15.1055048 14.2662024,14.9627329 C14.2142853,14.819961 14.1883272,14.675028 14.1883272,14.5279297 C14.1883272,14.2250802 14.2597121,14.0065992 14.402484,13.8724801 C14.5452559,13.738361 14.7204734,13.6713025 14.9281416,13.6713025 L16.0443528,13.6713025 L16.4207496,11.9969857 C16.5418894,11.97968 16.6543747,11.9710273 16.7582088,11.9710273 L17.0567304,11.9710273 C17.4201498,11.9710273 17.6905471,12.0380858 17.8679304,12.1722049 C18.0453137,12.306324 18.134004,12.5291313 18.134004,12.8406337 C18.134004,12.935815 18.1253513,13.0439739 18.1080456,13.1651137 C18.0907399,13.2862535 18.0691081,13.4073915 18.0431496,13.5285313 L18.004212,13.6713025 L19.1593608,13.6713025 L19.5357576,11.9969857 C19.6568974,11.97968 19.7693827,11.9710273 19.8732168,11.9710273 L20.1717384,11.9710273 C20.5351578,11.9710273 20.8055551,12.0380858 20.9829384,12.1722049 C21.1603217,12.306324 21.249012,12.5291313 21.249012,12.8406337 C21.249012,12.935815 21.2403593,13.0439739 21.2230536,13.1651137 C21.2057479,13.2862535 21.1841161,13.4073915 21.1581576,13.5285313 L21.11922,13.6713025 L22.09266,13.6713025 C22.1532299,13.7578309 22.2073094,13.8746426 22.2549,14.0217409 C22.3024906,14.1688392 22.3262856,14.3202617 22.3262856,14.4760129 C22.3262856,14.7788624 22.2549007,14.9951802 22.1121288,15.1249729 C21.9693569,15.2547655 21.7984658,15.3196609 21.5994504,15.3196609 L20.7558024,15.3196609 L20.47026,16.6305601 L21.7422216,16.6305601 C21.8027915,16.7170885 21.856871,16.8339002 21.9044616,16.9809985 C21.9520522,17.1280968 21.9758472,17.2795193 21.9758472,17.4352705 C21.9758472,17.73812 21.9044623,17.9544378 21.7616904,18.0842305 C21.6189185,18.2140231 21.4480274,18.2789185 21.249012,18.2789185 L20.0938632,18.2789185 L19.7304456,19.9402561 Z M17.355252,16.6305601 L18.5104008,16.6305601 L18.7959432,15.3196609 L17.6407944,15.3196609 L17.355252,16.6305601 Z M24.7274376,14.1645121 L23.4295176,14.5668673 C23.299725,14.4803389 23.1699342,14.3592009 23.0401416,14.2034497 C22.910349,14.0476985 22.8454536,13.8313807 22.8454536,13.5544897 C22.8454536,13.0353191 23.1612776,12.6719051 23.7929352,12.4642369 L25.2466056,11.9710273 L25.726836,11.9710273 C26.0989083,11.9710273 26.3931005,12.0791862 26.6094216,12.2955073 C26.8257427,12.5118284 26.9339016,12.8060206 26.9339016,13.1780929 L26.9339016,19.9402561 C26.8387203,19.9575618 26.6981137,19.9813567 26.5120776,20.0116417 C26.3260415,20.0419266 26.137845,20.0570689 25.9474824,20.0570689 C25.7571198,20.0570689 25.5862288,20.0440898 25.434804,20.0181313 C25.2833792,19.9921728 25.1557517,19.9402565 25.0519176,19.8623809 C24.9480835,19.7845053 24.8680459,19.6785096 24.8118024,19.5443905 C24.7555589,19.4102714 24.7274376,19.235054 24.7274376,19.0187329 L24.7274376,14.1645121 Z" id="#1" fill="#FFFFFF"></path>
                </g>
                <path d="M117.976962,53.1154915 L121.11247,43.6368678 L122.15764,40.4773266 L122.15764,29.9455226 L129.473825,29.9455226 L132.609333,32.0518834 L131.564164,37.3177854 L128.428656,43.6368678 L126.723772,77.9234616 L118.238491,77.9234616 C117.506865,65.7912018 117.13366,59.0238764 117.118876,57.6214853 C117.104092,56.2190942 117.390121,54.7170962 117.976962,53.1154915 Z" id="Fill-76" fill="#CBA285" transform="translate(124.863832, 53.934492) rotate(-30.000000) translate(-124.863832, -53.934492) "></path>
                <path d="M19.3559604,165.492618 C20.2474899,166.170866 21.2163619,166.87755 22.3315576,166.914411 C23.6422,166.958645 24.8316027,166.030793 25.4890143,164.887039 C26.6334747,162.894422 27.4257131,160.33414 28.1521058,158.163535 C31.07858,149.417925 31.8133341,146.245746 32.1258397,144.293149 C32.7487607,140.38901 36.8771797,137.959322 35.8675461,133.782409 C35.0115524,130.245829 31.5342739,130.613389 28.6621485,130.813493 C28.3778624,130.833504 28.0799891,130.857727 27.8396002,131.012545 C27.6368373,131.144192 27.4988749,131.353775 27.375545,131.560198 C26.795476,132.529124 26.1882326,133.775037 26.0387733,134.917737 C25.8558687,136.318467 26.0220506,137.763431 26.5195512,139.084119 C27.2354923,140.987216 26.0993932,142.918749 25.3970393,144.630167 C24.6591498,146.431106 24.2327207,148.352107 23.4352564,150.130928 C23.1227508,150.828134 22.7234961,151.955037 22.0943042,152.433181 C21.1902326,153.118801 20.7596229,152.722805 19.6465175,152.800741 C18.7591687,152.864985 12.0640408,145.010328 11.4891977,145.694896 C9.81483634,147.690673 6.16355899,150.437404 4.48919767,152.433181 C12.8744256,159.980272 17.8300131,164.333417 19.3559604,165.492618 Z" id="Fill-70-Copy" fill="#CBA285" transform="translate(20.257481, 148.805413) rotate(85.000000) translate(-20.257481, -148.805413) "></path>
                <path d="M19.3559604,165.492618 C20.2474899,166.170866 21.2163619,166.87755 22.3315576,166.914411 C23.6422,166.958645 24.8316027,166.030793 25.4890143,164.887039 C26.6334747,162.894422 27.4257131,160.33414 28.1521058,158.163535 C31.07858,149.417925 31.8133341,146.245746 32.1258397,144.293149 C32.7487607,140.38901 36.8771797,137.959322 35.8675461,133.782409 C35.0115524,130.245829 31.5342739,130.613389 28.6621485,130.813493 C28.3778624,130.833504 28.0799891,130.857727 27.8396002,131.012545 C27.6368373,131.144192 27.4988749,131.353775 27.375545,131.560198 C26.795476,132.529124 26.1882326,133.775037 26.0387733,134.917737 C25.8558687,136.318467 26.0220506,137.763431 26.5195512,139.084119 C27.2354923,140.987216 26.0993932,142.918749 25.3970393,144.630167 C24.6591498,146.431106 24.2327207,148.352107 23.4352564,150.130928 C23.1227508,150.828134 22.7234961,151.955037 22.0943042,152.433181 C21.1902326,153.118801 20.7596229,152.722805 19.6465175,152.800741 C18.7591687,152.864985 12.0640408,145.010328 11.4891977,145.694896 C9.81483634,147.690673 6.16355899,150.437404 4.48919767,152.433181 C12.8744256,159.980272 17.8300131,164.333417 19.3559604,165.492618 Z" id="Fill-70-Copy" fill="#F9D4BB" transform="translate(20.257481, 148.805413) rotate(85.000000) translate(-20.257481, -148.805413) "></path>
                <path d="M43.3222775,188 C47.079658,190.843929 41.7726759,200.170525 41.7398911,206 C41.7173952,210 41.27061,217.320407 41.7398911,220.612649 C41.974009,222.259823 42.2185786,223.904891 42.4725548,225.548905 C42.6324657,226.589448 42.5812524,228.701074 43.3222775,229.513076 C43.4706915,229.677373 43.6567317,229.800595 43.8406815,229.922764 C46.7985108,231.892211 50.1273752,231.055986 50.7377542,227.370908 C50.9739624,225.942795 51.2268934,224.514682 51.446379,223.084463 C51.446379,223.081304 60.7173952,195 58.7173952,183 C52.7173952,173.666667 43.7173952,170 31.7173952,172 C31.7173952,172 20.7696537,181.97999 20.7173952,182 C21.1346548,185.475607 22.4679881,187.475607 24.7173952,188 C29.922371,189.21341 41.719128,186.78659 43.3222775,188 Z" id="Fill-66" fill="#494E50" transform="translate(39.858698, 201.214168) scale(-1, 1) translate(-39.858698, -201.214168) "></path>
                <path d="M55,175.159541 L73,175.159541 C76.644919,187.159541 72.0092866,219.307575 71,225 C69.8567681,231.447883 66.8010073,249.54146 66.6609546,252.15756 C66.6160123,252.992732 66.8584916,254.046966 66.4696886,254.814735 C65.7589735,256.214411 63.1815858,256.348165 61.911705,255.978499 C56.8154592,254.496674 56.88235,248.636778 56.6409159,244.334536 C56.3409523,238.950678 56.0995182,233.564714 55.8100063,228.181909 C55.5403526,223.1456 55.2696537,218.109291 55,213.074036 L55,175.159541 Z" id="Fill-68" fill="#585A5B"></path>
                <path d="M28.1200621,128.020658 C29.8937145,134.25022 22.8939416,140.786257 22.9566517,147.271742 C23.0204071,153.953119 22.4889434,165.299031 22.0311592,171.939334 C21.986217,172.590199 21.9590426,173.260022 22.1753926,173.874026 C23.30104,177.070429 26.9336382,178.018469 29.5545154,178.697592 C32.1753926,179.376716 39.2887419,179.376716 41.1753926,179.376716 C47.1234728,179.376716 53.7141695,179.581012 58.1038809,175.376716 C58.9671908,174.549969 59.9402842,172.59157 60.1921293,171.376716 C60.5481836,169.659177 60.5481836,166.659177 60.1921293,162.376716 C59.9015722,152.897919 59.9015722,147.465176 60.1921293,146.078489 C60.3907114,145.133786 60.4649185,141.981617 61.1568206,141.359188 C62.0253563,140.576675 64.3247289,142.071138 65.3772145,142.498729 C65.62701,142.599834 65.8872571,142.704099 66.1569108,142.688301 C66.5028619,142.669344 66.8049159,142.457655 67.0818857,142.249125 C69.6895833,140.296529 71.9680525,137.895277 73.7887376,135.183338 C76.0651164,131.791044 67.6305997,126.861106 65.6604554,125.57096 C63.1781781,123.946956 60.610197,122.458812 58.0192222,121.020168 C56.2926024,120.061773 48.6262851,119.05388 47.1013829,119.798478 C45.3130982,120.672618 43.7735637,121.710533 41.8838975,120.952243 C40.9359289,120.573098 40.0078185,120.078103 39.3169615,119.320866 C37.6279678,117.468322 26.9954598,124.071231 28.1200621,128.020658 Z" id="Fill-72" fill="#1CC7A4" transform="translate(48.087696, 149.189159) scale(-1, 1) translate(-48.087696, -149.189159) "></path>
                <path d="M49.0148714,257.90895 C49.0096456,259.416051 49.0054649,260.922099 49.0002391,262.4292 C48.9991939,262.592443 48.9991939,262.758845 49.0535427,262.91261 C49.6127083,264.499753 52.5872603,264.030034 53.7275401,263.772005 C59.040136,262.572433 64.4018549,259.625634 67.8268749,255.26968 C68.6943655,254.164893 68.9483416,252.816822 67.6491961,251.953215 C66.3364634,251.080128 64.594166,250.918991 63.0609026,251.031682 C61.6666466,251.131734 60.3016554,251.470858 58.9439804,251.806822" id="Fill-62" fill="#1CC7A4" transform="translate(58.775388, 257.521167) scale(-1, 1) rotate(39.000000) translate(-58.775388, -257.521167) "></path>
                <path d="M17.6429684,228.895032 C17.6377425,230.402133 17.6335619,231.908181 17.628336,233.415283 C17.6272908,233.578526 17.6272908,233.744928 17.6816396,233.898692 C18.2408053,235.485835 21.2153573,235.016117 22.3556371,234.758088 C27.6682329,233.558515 33.0299518,230.611716 36.4549718,226.255762 C37.3224624,225.150976 37.5764385,223.802905 36.277293,222.939297 C34.9645603,222.066211 33.222263,221.905074 31.6889995,222.017764 C30.2947436,222.117816 27.3578176,223.293166 26.0001426,223.62913" id="Fill-64" fill="#1CC7A4" transform="translate(27.403485, 228.507249) scale(-1, 1) rotate(6.000000) translate(-27.403485, -228.507249) "></path>
                <path d="M43.1200621,128.020658 C44.8937145,134.25022 37.8939416,140.786257 37.9566517,147.271742 C38.0204071,153.953119 37.4889434,165.299031 37.0311592,171.939334 C36.986217,172.590199 36.9590426,173.260022 37.1753926,173.874026 C38.30104,177.070429 41.9336382,178.018469 44.5545154,178.697592 C47.1753926,179.376716 54.2887419,179.376716 56.1753926,179.376716 C62.1234728,179.376716 68.7141695,179.581012 73.1038809,175.376716 C73.9671908,174.549969 74.9402842,172.59157 75.1921293,171.376716 C75.5481836,169.659177 75.5481836,166.659177 75.1921293,162.376716 C74.9015722,152.897919 74.9015722,147.465176 75.1921293,146.078489 C75.3907114,145.133786 75.4649185,141.981617 76.1568206,141.359188 C77.0253563,140.576675 79.3247289,142.071138 80.3772145,142.498729 C80.62701,142.599834 80.8872571,142.704099 81.1569108,142.688301 C81.5028619,142.669344 81.8049159,142.457655 82.0818857,142.249125 C84.6895833,140.296529 86.9680525,137.895277 88.7887376,135.183338 C91.0651164,131.791044 82.6305997,126.861106 80.6604554,125.57096 C78.1781781,123.946956 75.610197,122.458812 73.0192222,121.020168 C71.2926024,120.061773 63.6262851,119.05388 62.1013829,119.798478 C60.3130982,120.672618 58.7735637,121.710533 56.8838975,120.952243 C55.9359289,120.573098 55.0078185,120.078103 54.3169615,119.320866 C52.6279678,117.468322 41.9954598,124.071231 43.1200621,128.020658 Z" id="Fill-72-Copy" fill="#1CC7A4"></path>
                <path d="M63.6644686,122.512196 C61.0817616,124.533371 58.5269387,125.362639 56,125 C53.4730613,124.637361 51.1353706,123.105973 48.9869281,120.405835 L51,111.980392 L62,111.980392" id="Fill-60" fill="#F9D4BB"></path>
                <path d="M59.1355081,114.376531 C59.3685809,113.789909 62.0839309,113.00529 62.5856122,112.644049 C64.768971,111.071651 67.5710701,110.33969 67.545986,107.195947 C67.5355343,105.764674 67.0296723,86.9390748 64.3613549,88.0470206 C64.0080877,88.1944658 62.5699346,94.1249247 62.2710162,94.366103 C61.7985996,94.7463011 60.1806775,98.0069476 60.1806775,98.5788246 L59.1355081,99.632005 L56,99.632005 L58.0903387,107.004268 L61.2258468,108.057448 L57.0451694,110.163809 C57.0451694,110.163809 59.1365533,114.373371 59.1355081,114.376531" id="Fill-74" fill="#F9D4BB"></path>
                <path d="M49.1355081,114.376531 C49.3685809,113.789909 52.0839309,113.00529 52.5856122,112.644049 C54.768971,111.071651 57.5710701,110.33969 57.545986,107.195947 C57.5355343,105.764674 57.0296723,86.9390748 54.3613549,88.0470206 C54.0080877,88.1944658 52.5699346,94.1249247 52.2710162,94.366103 C51.7985996,94.7463011 50.1806775,98.0069476 50.1806775,98.5788246 L49.1355081,99.632005 L46,99.632005 L48.0903387,107.004268 L51.2258468,108.057448 L47.0451694,110.163809 C47.0451694,110.163809 49.1365533,114.373371 49.1355081,114.376531" id="Fill-74" fill="#F9D4BB" transform="translate(51.773077, 101.188265) scale(-1, 1) translate(-51.773077, -101.188265) "></path>
                <path d="M49,88 C52.437037,86 55.1037037,85 57,85 C58.8962963,85 61.562963,86 65,88 L63.9333333,111 C60.6148148,113 58.1259259,114 56.4666667,114 C54.8074074,114 52.3185185,113 49,111 L49,88 Z" id="Rectangle-7" fill="#F9D4BB"></path>
                <path d="M46.5,98 C45.9379534,90.1910081 45.7712867,85.8576748 46,85 C46.2287133,84.1423252 47.5620466,83.4756585 50,83 C49.3333333,79.6666667 51,78 55,78 C61,78 59.0398895,80.9639153 63,84 C65,85 65,84 67,85 C68.3333333,85.6666667 68.3333333,90 67,98 C65.2438718,92.8951751 63.9105385,89.7285084 63,88.5 C60.5698402,85.2212018 65.5,90 59,91 C52.5,92 52.4217408,86.7379449 50,90 C49.0861523,91.2309416 47.9194857,93.8976083 46.5,98 Z" id="Path-4" fill="#F5A623"></path>
                <g id="Rectangle-2-Copy-3" transform="translate(44.819040, 142.530386) rotate(24.000000) translate(-44.819040, -142.530386) ">
                    <use fill="black" fill-opacity="1" filter="url(#filter-6)" xlink:href="#path-5"></use>
                    <use fill="#FFFFFF" fill-rule="evenodd" xlink:href="#path-5"></use>
                </g>
                <g id="Group" transform="translate(43.000000, 137.000000)">
                    <polygon id="Path-2-Copy" fill="#0F72C9" points="29.9056046 21.8285294 40.7617683 48.7000656 32.5666981 45.2212591 29.0192074 53.5791176 18.1163415 26.5919825"></polygon>
                    <polygon id="Path-2" fill="#0088FF" points="13.8755539 21.8285294 25.6648171 26.5919825 14.7619512 53.5791176 11.2144604 45.2212591 3.01939024 48.7000656"></polygon>
                    <g id="Oval">
                        <use fill="black" fill-opacity="1" filter="url(#filter-8)" xlink:href="#path-7"></use>
                        <use fill="#0088FF" fill-rule="evenodd" xlink:href="#path-7"></use>
                    </g>
                    <path d="M19.7304456,19.9402561 C19.6093058,19.9575618 19.4989837,19.9683777 19.399476,19.9727041 C19.2999683,19.9770305 19.2026253,19.9791937 19.107444,19.9791937 C18.7440246,19.9791937 18.4757905,19.909972 18.3027336,19.7715265 C18.1296767,19.633081 18.0431496,19.4081105 18.0431496,19.0966081 C18.0431496,18.8975927 18.0691077,18.6726221 18.1210248,18.4216897 L18.1469832,18.2789185 L16.9788552,18.2789185 L16.6154376,19.9402561 C16.4942978,19.9575618 16.3839757,19.9683777 16.284468,19.9727041 C16.1849603,19.9770305 16.0876173,19.9791937 15.992436,19.9791937 C15.6290166,19.9791937 15.3607825,19.909972 15.1877256,19.7715265 C15.0146687,19.633081 14.9281416,19.4081105 14.9281416,19.0966081 C14.9281416,18.8975927 14.9540997,18.6726221 15.0060168,18.4216897 L15.0319752,18.2789185 L14.0585352,18.2789185 C14.015271,18.1837372 13.9676811,18.0647624 13.915764,17.9219905 C13.8638469,17.7792186 13.8378888,17.6342856 13.8378888,17.4871873 C13.8378888,17.1843378 13.9092737,16.9658568 14.0520456,16.8317377 C14.1948175,16.6976186 14.370035,16.6305601 14.5777032,16.6305601 L15.3953928,16.6305601 L15.6809352,15.3196609 L14.4089736,15.3196609 C14.3657094,15.2244796 14.3181195,15.1055048 14.2662024,14.9627329 C14.2142853,14.819961 14.1883272,14.675028 14.1883272,14.5279297 C14.1883272,14.2250802 14.2597121,14.0065992 14.402484,13.8724801 C14.5452559,13.738361 14.7204734,13.6713025 14.9281416,13.6713025 L16.0443528,13.6713025 L16.4207496,11.9969857 C16.5418894,11.97968 16.6543747,11.9710273 16.7582088,11.9710273 L17.0567304,11.9710273 C17.4201498,11.9710273 17.6905471,12.0380858 17.8679304,12.1722049 C18.0453137,12.306324 18.134004,12.5291313 18.134004,12.8406337 C18.134004,12.935815 18.1253513,13.0439739 18.1080456,13.1651137 C18.0907399,13.2862535 18.0691081,13.4073915 18.0431496,13.5285313 L18.004212,13.6713025 L19.1593608,13.6713025 L19.5357576,11.9969857 C19.6568974,11.97968 19.7693827,11.9710273 19.8732168,11.9710273 L20.1717384,11.9710273 C20.5351578,11.9710273 20.8055551,12.0380858 20.9829384,12.1722049 C21.1603217,12.306324 21.249012,12.5291313 21.249012,12.8406337 C21.249012,12.935815 21.2403593,13.0439739 21.2230536,13.1651137 C21.2057479,13.2862535 21.1841161,13.4073915 21.1581576,13.5285313 L21.11922,13.6713025 L22.09266,13.6713025 C22.1532299,13.7578309 22.2073094,13.8746426 22.2549,14.0217409 C22.3024906,14.1688392 22.3262856,14.3202617 22.3262856,14.4760129 C22.3262856,14.7788624 22.2549007,14.9951802 22.1121288,15.1249729 C21.9693569,15.2547655 21.7984658,15.3196609 21.5994504,15.3196609 L20.7558024,15.3196609 L20.47026,16.6305601 L21.7422216,16.6305601 C21.8027915,16.7170885 21.856871,16.8339002 21.9044616,16.9809985 C21.9520522,17.1280968 21.9758472,17.2795193 21.9758472,17.4352705 C21.9758472,17.73812 21.9044623,17.9544378 21.7616904,18.0842305 C21.6189185,18.2140231 21.4480274,18.2789185 21.249012,18.2789185 L20.0938632,18.2789185 L19.7304456,19.9402561 Z M17.355252,16.6305601 L18.5104008,16.6305601 L18.7959432,15.3196609 L17.6407944,15.3196609 L17.355252,16.6305601 Z M24.7274376,14.1645121 L23.4295176,14.5668673 C23.299725,14.4803389 23.1699342,14.3592009 23.0401416,14.2034497 C22.910349,14.0476985 22.8454536,13.8313807 22.8454536,13.5544897 C22.8454536,13.0353191 23.1612776,12.6719051 23.7929352,12.4642369 L25.2466056,11.9710273 L25.726836,11.9710273 C26.0989083,11.9710273 26.3931005,12.0791862 26.6094216,12.2955073 C26.8257427,12.5118284 26.9339016,12.8060206 26.9339016,13.1780929 L26.9339016,19.9402561 C26.8387203,19.9575618 26.6981137,19.9813567 26.5120776,20.0116417 C26.3260415,20.0419266 26.137845,20.0570689 25.9474824,20.0570689 C25.7571198,20.0570689 25.5862288,20.0440898 25.434804,20.0181313 C25.2833792,19.9921728 25.1557517,19.9402565 25.0519176,19.8623809 C24.9480835,19.7845053 24.8680459,19.6785096 24.8118024,19.5443905 C24.7555589,19.4102714 24.7274376,19.235054 24.7274376,19.0187329 L24.7274376,14.1645121 Z" id="#1" fill="#FFFFFF"></path>
                </g>
                <path d="M18.3541087,138.453756 C17.9414895,138.321012 17.5663866,138.186058 17.228789,138.048889 C16.8911914,137.91172 16.6004868,137.745792 16.3566663,137.551101 C16.1128458,137.35641 15.92295,137.124111 15.7869732,136.854198 C15.6509964,136.584286 15.583009,136.254643 15.583009,135.86526 C15.583009,135.113044 15.8901244,134.51128 16.5043645,134.059951 C17.1186046,133.608621 17.9789966,133.38296 19.0855665,133.38296 C19.4888081,133.38296 19.8639109,133.409508 20.2108862,133.462606 C20.5578615,133.515703 20.8555994,133.597561 21.1041087,133.708181 C21.3526181,133.818801 21.5472027,133.960392 21.6878683,134.13296 C21.828534,134.305527 21.8988658,134.506852 21.8988658,134.736942 C21.8988658,134.967031 21.8426003,135.163932 21.7300678,135.32765 C21.6175353,135.491367 21.4815605,135.630747 21.3221394,135.745791 C21.1158298,135.621897 20.8391915,135.513491 20.4922162,135.42057 C20.1452408,135.327649 19.7654492,135.28119 19.35283,135.28119 C18.930833,135.28119 18.6213731,135.336499 18.4244412,135.447119 C18.2275093,135.557739 18.1290448,135.697118 18.1290448,135.86526 C18.1290448,135.998004 18.189999,136.10641 18.3119092,136.190482 C18.4338195,136.274553 18.6166821,136.351986 18.8605026,136.422783 L19.6060269,136.648446 C20.4875317,136.913934 21.1650612,137.252426 21.6386356,137.663933 C22.11221,138.075439 22.3489936,138.635168 22.3489936,139.343137 C22.3489936,140.095353 22.034845,140.703754 21.4065384,141.168358 C20.7782318,141.632962 19.8545411,141.86526 18.6354387,141.86526 C18.204064,141.86526 17.8031728,141.832075 17.4327532,141.765703 C17.0623337,141.699331 16.7388075,141.601987 16.462165,141.473667 C16.1855225,141.345348 15.9698384,141.186058 15.8151062,140.995791 C15.6603739,140.805525 15.583009,140.586501 15.583009,140.338712 C15.583009,140.082073 15.6627183,139.863049 15.8221394,139.681632 C15.9815605,139.500215 16.1550456,139.360836 16.3425998,139.26349 C16.6051757,139.458182 16.9263575,139.626322 17.3061548,139.767915 C17.6859521,139.909509 18.1009096,139.980305 18.5510397,139.980305 C19.0105475,139.980305 19.3340737,139.913934 19.5216279,139.78119 C19.7091821,139.648446 19.8029578,139.49358 19.8029578,139.316588 C19.8029578,139.139596 19.7279373,139.004641 19.5778939,138.911721 C19.4278505,138.8188 19.2168552,138.728093 18.9449016,138.639597 L18.3541087,138.453756 Z M26.4282775,140.219243 C26.5876986,140.219243 26.7635281,140.203756 26.9557711,140.172783 C27.1480142,140.141809 27.2910222,140.099774 27.3847993,140.046676 L27.3847993,138.984729 L26.3720116,139.064375 C26.1094356,139.082075 25.8937515,139.135171 25.7249527,139.223667 C25.5561539,139.312163 25.4717558,139.444906 25.4717558,139.621898 C25.4717558,139.79889 25.544432,139.942693 25.6897865,140.053313 C25.835141,140.163934 26.0813022,140.219243 26.4282775,140.219243 Z M26.3157456,135.002429 C26.822142,135.002429 27.2839873,135.051101 27.7012954,135.148446 C28.1186036,135.245792 28.4749513,135.39402 28.7703491,135.593137 C29.065747,135.792253 29.2931531,136.044462 29.4525742,136.349774 C29.6119953,136.655085 29.6917046,137.015701 29.6917046,137.431632 L29.6917046,140.405083 C29.6917046,140.635173 29.6237173,140.823224 29.4877405,140.969243 C29.3517636,141.115261 29.1900006,141.241366 29.0024463,141.347561 C28.3928951,141.692696 27.5348474,141.86526 26.4282775,141.86526 C25.9312589,141.86526 25.4834799,141.821013 25.0849272,141.732517 C24.6863744,141.644021 24.3440931,141.511279 24.0580729,141.334287 C23.7720527,141.157295 23.5516798,140.931633 23.3969476,140.657296 C23.2422154,140.382958 23.1648504,140.064377 23.1648504,139.701544 C23.1648504,139.090921 23.3570906,138.621899 23.7415768,138.294464 C24.1260629,137.967029 24.7215386,137.763491 25.5280218,137.683844 L27.3707328,137.498004 L27.3707328,137.405083 C27.3707328,137.148445 27.2511688,136.964818 27.0120371,136.854198 C26.7729055,136.743578 26.4282798,136.688269 25.9781497,136.688269 C25.6217966,136.688269 25.2748265,136.723667 24.9372289,136.794464 C24.5996313,136.865261 24.2948603,136.953755 24.0229067,137.059951 C23.9009964,136.980304 23.7978432,136.858624 23.7134438,136.694906 C23.6290444,136.531189 23.5868453,136.360837 23.5868453,136.183844 C23.5868453,135.953755 23.6454551,135.770128 23.7626765,135.63296 C23.8798979,135.495791 24.0604161,135.378535 24.3042366,135.28119 C24.5761902,135.183844 24.897372,135.113048 25.2677916,135.0688 C25.6382112,135.024552 25.9875257,135.002429 26.3157456,135.002429 Z M33.5881241,141.639597 C33.4849693,141.657296 33.3325837,141.681632 33.130963,141.712606 C32.9293422,141.743579 32.72538,141.759066 32.5190704,141.759066 C32.3127607,141.759066 32.1275537,141.745792 31.9634438,141.719243 C31.7993338,141.692694 31.6610147,141.639597 31.5484821,141.559951 C31.4359496,141.480304 31.3492071,141.371898 31.288252,141.234729 C31.2272968,141.097561 31.1968197,140.918359 31.1968197,140.697119 L31.1968197,132.998004 C31.2999746,132.980305 31.4523601,132.955969 31.6539809,132.924995 C31.8556016,132.894021 32.0595638,132.878535 32.2658734,132.878535 C32.4721831,132.878535 32.6573901,132.891809 32.8215,132.918358 C32.98561,132.944907 33.1239291,132.998003 33.2364617,133.07765 C33.3489942,133.157296 33.4357367,133.265702 33.4966919,133.402871 C33.557647,133.54004 33.5881241,133.719242 33.5881241,133.940482 L33.5881241,141.639597 Z M38.7083287,141.86526 C38.1550437,141.86526 37.6416218,141.792252 37.1680474,141.646234 C36.694473,141.500215 36.2818599,141.281191 35.9301957,140.989154 C35.5785315,140.697117 35.3018932,140.329864 35.1002724,139.887384 C34.8986516,139.444904 34.7978428,138.92721 34.7978428,138.334287 C34.7978428,137.750213 34.8986516,137.248006 35.1002724,136.82765 C35.3018932,136.407294 35.5668096,136.062164 35.8950295,135.792252 C36.2232493,135.522339 36.5983522,135.323226 37.0203491,135.194906 C37.4423461,135.066587 37.8737144,135.002429 38.3144668,135.002429 C38.8114855,135.002429 39.2639532,135.073224 39.6718837,135.214818 C40.0798141,135.356412 40.431473,135.5511 40.7268709,135.798889 C41.0222688,136.046678 41.2520193,136.343135 41.4161292,136.688269 C41.5802391,137.033404 41.6622929,137.409506 41.6622929,137.816588 C41.6622929,138.117474 41.573206,138.34756 41.3950295,138.506853 C41.2168529,138.666146 40.9683473,138.767915 40.6495052,138.812163 L37.1750806,139.303313 C37.2782354,139.59535 37.4892308,139.814375 37.8080729,139.960393 C38.1269151,140.106412 38.4926403,140.17942 38.9052596,140.17942 C39.2897458,140.17942 39.6531266,140.13296 39.9954131,140.040039 C40.3376995,139.947118 40.6166823,139.838712 40.8323696,139.714818 C40.982413,139.803314 41.1090102,139.927207 41.212165,140.086499 C41.3153198,140.245792 41.3668965,140.413932 41.3668965,140.590924 C41.3668965,140.989156 41.1699675,141.285613 40.7761036,141.480305 C40.4760169,141.630748 40.1384243,141.732517 39.7633159,141.785614 C39.3882075,141.838712 39.0365486,141.86526 38.7083287,141.86526 Z M38.3144668,136.648446 C38.0894017,136.648446 37.8948171,136.683844 37.7307072,136.754641 C37.5665973,136.825438 37.4329669,136.916145 37.3298121,137.026765 C37.2266572,137.137385 37.1492923,137.261277 37.0977149,137.398446 C37.0461375,137.535615 37.0156604,137.674994 37.0062827,137.816588 L39.4116535,137.444906 C39.3835204,137.267914 39.2803671,137.090925 39.1021906,136.913933 C38.9240141,136.736941 38.6614421,136.648446 38.3144668,136.648446 Z M48.583009,139.728092 C48.583009,140.400662 48.3157482,140.927205 47.7812187,141.307738 C47.2466892,141.688271 46.4589733,141.878535 45.4180474,141.878535 C45.0241835,141.878535 44.6584583,141.851986 44.3208607,141.798889 C43.9832631,141.745791 43.6949028,141.663934 43.4557711,141.553313 C43.2166395,141.442693 43.0290881,141.303314 42.8931113,141.135172 C42.7571345,140.967029 42.6891471,140.767916 42.6891471,140.537827 C42.6891471,140.325436 42.736035,140.146235 42.8298121,140.000216 C42.9235892,139.854198 43.03612,139.732518 43.167408,139.635172 C43.4393616,139.776766 43.7511658,139.90287 44.10283,140.01349 C44.4544941,140.124111 44.860074,140.17942 45.3195819,140.17942 C45.6102909,140.17942 45.8330082,140.139597 45.9877405,140.059951 C46.1424727,139.980304 46.2198376,139.874111 46.2198376,139.741367 C46.2198376,139.617472 46.1635722,139.520128 46.0510397,139.449331 C45.9385072,139.378534 45.7509557,139.321013 45.4883798,139.276765 L45.066385,139.197119 C44.2505241,139.046676 43.6433264,138.809952 43.2447737,138.486942 C42.846221,138.163931 42.6469476,137.701547 42.6469476,137.099774 C42.6469476,136.772338 42.7219682,136.475881 42.8720116,136.210393 C43.0220549,135.944905 43.2330503,135.723668 43.5050039,135.546676 C43.7769575,135.369684 44.1028281,135.232518 44.4826254,135.135172 C44.8624227,135.037826 45.2820689,134.989154 45.7415768,134.989154 C46.0885521,134.989154 46.4144226,135.01349 46.7191983,135.062163 C47.0239739,135.110836 47.2888902,135.183844 47.5139553,135.28119 C47.7390203,135.378535 47.9171942,135.50464 48.0484821,135.659508 C48.1797701,135.814376 48.2454131,135.998003 48.2454131,136.210393 C48.2454131,136.413934 48.2055584,136.588711 48.1258479,136.734729 C48.0461373,136.880748 47.9453284,137.002428 47.8234182,137.099774 C47.7483965,137.055526 47.6358657,137.009066 47.4858223,136.960393 C47.3357789,136.91172 47.1716714,136.867473 46.9934949,136.82765 C46.8153184,136.787827 46.6348002,136.754641 46.4519348,136.728092 C46.2690695,136.701543 46.1026176,136.688269 45.9525742,136.688269 C45.6431097,136.688269 45.4039817,136.721455 45.2351829,136.787827 C45.0663841,136.854199 44.981986,136.95818 44.981986,137.099774 C44.981986,137.197119 45.0288738,137.276765 45.1226509,137.338712 C45.216428,137.400659 45.3946019,137.45818 45.6571778,137.511278 L46.0932392,137.604198 C46.9934994,137.79889 47.6335186,138.066586 48.0133159,138.407296 C48.3931132,138.748005 48.583009,139.188267 48.583009,139.728092 Z" id="Sales-Copy-2" fill="#4A4A4A" transform="translate(32.083009, 137.378535) rotate(24.000000) translate(-32.083009, -137.378535) "></path>
                <path d="M86.3559604,165.492618 C87.2474899,166.170866 88.2163619,166.87755 89.3315576,166.914411 C90.6422,166.958645 91.8316027,166.030793 92.4890143,164.887039 C93.6334747,162.894422 94.4257131,160.33414 95.1521058,158.163535 C98.07858,149.417925 98.8133341,146.245746 99.1258397,144.293149 C99.7487607,140.38901 103.87718,137.959322 102.867546,133.782409 C102.011552,130.245829 98.5342739,130.613389 95.6621485,130.813493 C95.3778624,130.833504 95.0799891,130.857727 94.8396002,131.012545 C94.6368373,131.144192 94.4988749,131.353775 94.375545,131.560198 C93.795476,132.529124 93.1882326,133.775037 93.0387733,134.917737 C92.8558687,136.318467 93.0220506,137.763431 93.5195512,139.084119 C94.2354923,140.987216 93.0993932,142.918749 92.3970393,144.630167 C91.6591498,146.431106 91.2327207,148.352107 90.4352564,150.130928 C90.1227508,150.828134 89.7234961,151.955037 89.0943042,152.433181 C88.1902326,153.118801 87.7596229,152.722805 86.6465175,152.800741 C85.7591687,152.864985 79.0640408,145.010328 78.4891977,145.694896 C76.8148363,147.690673 73.163559,150.437404 71.4891977,152.433181 C79.8744256,159.980272 84.8300131,164.333417 86.3559604,165.492618 Z" id="Fill-70" fill="#F9D4BB" transform="translate(87.257481, 148.805413) scale(-1, 1) rotate(109.000000) translate(-87.257481, -148.805413) "></path>
                <path d="M13.0944604,172.325846 C13.9859899,173.004094 14.9548619,173.710778 16.0700576,173.747639 C17.3807,173.791873 18.5701027,172.864021 19.2275143,171.720267 C20.3719747,169.72765 21.1642131,167.167368 21.8906058,164.996763 C24.8170801,156.251153 25.5518341,153.078974 25.8643398,151.126378 C26.4872607,147.222238 30.6156797,144.792551 29.6060461,140.615637 C28.7500524,137.079057 25.2727739,137.446617 22.4006485,137.646722 C22.1163624,137.666732 21.8184891,137.690955 21.5781002,137.845773 C21.3753373,137.97742 21.237375,138.187003 21.114045,138.393427 C20.533976,139.362352 19.9267326,140.608265 19.7772734,141.750966 C19.5943687,143.151696 19.7605507,144.596659 20.2580513,145.917347 C20.9739923,147.820444 19.8378932,149.751977 19.1355394,151.463395 C18.3976498,153.264334 17.9712207,155.185335 17.1737565,156.964157 C16.8612508,157.661362 16.4619961,158.788265 15.8328042,159.266409 C14.9287327,159.952029 14.4981229,159.556034 13.3850175,159.633969 C12.4976687,159.698213 10.8055395,170.587045 13.0944604,172.325846 Z" id="Fill-70-Copy" fill="#F9D4BB" transform="translate(20.855311, 155.638641) rotate(85.000000) translate(-20.855311, -155.638641) "></path>
                <path d="M165,135.159541 L183,135.159541 C186.644919,147.159541 182.009287,179.307575 181,185 C179.856768,191.447883 176.801007,209.54146 176.660955,212.15756 C176.616012,212.992732 176.858492,214.046966 176.469689,214.814735 C175.758973,216.214411 173.181586,216.348165 171.911705,215.978499 C166.815459,214.496674 166.88235,208.636778 166.640916,204.334536 C166.340952,198.950678 166.099518,193.564714 165.810006,188.181909 C165.540353,183.1456 165.269654,178.109291 165,173.074036 L165,135.159541 Z" id="Fill-68" fill="#585A5B"></path>
                <path d="M136.120062,88.0206578 C137.893714,94.2502199 130.893942,100.786257 130.956652,107.271742 C131.020407,113.953119 130.488943,125.299031 130.031159,131.939334 C129.986217,132.590199 129.959043,133.260022 130.175393,133.874026 C131.30104,137.070429 134.933638,138.018469 137.554515,138.697592 C140.175393,139.376716 147.288742,139.376716 149.175393,139.376716 C155.123473,139.376716 161.71417,139.581012 166.103881,135.376716 C166.967191,134.549969 167.940284,132.59157 168.192129,131.376716 C168.548184,129.659177 168.548184,126.659177 168.192129,122.376716 C167.901572,112.897919 167.901572,107.465176 168.192129,106.078489 C168.390711,105.133786 168.464918,101.981617 169.156821,101.359188 C170.025356,100.576675 173.175393,103 175.081886,102.249125 C177.986833,101.105007 181.968053,84.8952772 183.788738,82.1833377 C186.065116,78.7910436 177.6306,73.8611062 175.660455,72.5709602 C173.178178,70.946956 168.610197,82.4588121 166.019222,81.0201677 C164.292602,80.0617735 156.626285,79.0538798 155.101383,79.7984784 C153.313098,80.6726181 151.773564,81.7105326 149.883897,80.9522427 C148.935929,80.5730978 148.007818,80.078103 147.316962,79.3208663 C145.627968,77.468322 134.99546,84.0712313 136.120062,88.0206578 Z" id="Fill-72" fill="#D61C71" transform="translate(157.087696, 105.895943) scale(-1, 1) translate(-157.087696, -105.895943) "></path>
                <path d="M156.120062,88.0206578 C157.893714,94.2502199 150.893942,100.786257 150.956652,107.271742 C151.020407,113.953119 150.488943,125.299031 150.031159,131.939334 C149.986217,132.590199 149.959043,133.260022 150.175393,133.874026 C151.30104,137.070429 154.933638,138.018469 157.554515,138.697592 C160.175393,139.376716 167.288742,139.376716 169.175393,139.376716 C175.123473,139.376716 181.71417,139.581012 186.103881,135.376716 C186.967191,134.549969 187.940284,132.59157 188.192129,131.376716 C188.548184,129.659177 188.548184,126.659177 188.192129,122.376716 C187.901572,112.897919 187.901572,107.465176 188.192129,106.078489 C188.390711,105.133786 188.464918,101.981617 189.156821,101.359188 C190.025356,100.576675 193.175393,103 195.081886,102.249125 C197.986833,101.105007 201.968053,84.8952772 203.788738,82.1833377 C206.065116,78.7910436 197.6306,73.8611062 195.660455,72.5709602 C193.178178,70.946956 188.610197,82.4588121 186.019222,81.0201677 C184.292602,80.0617735 176.626285,79.0538798 175.101383,79.7984784 C173.313098,80.6726181 171.773564,81.7105326 169.883897,80.9522427 C168.935929,80.5730978 168.007818,80.078103 167.316962,79.3208663 C165.627968,77.468322 154.99546,84.0712313 156.120062,88.0206578 Z" id="Fill-72" fill="#D61C71"></path>
                <path d="M159.014871,217.90895 C159.009646,219.416051 159.005465,220.922099 159.000239,222.4292 C158.999194,222.592443 158.999194,222.758845 159.053543,222.91261 C159.612708,224.499753 162.58726,224.030034 163.72754,223.772005 C169.040136,222.572433 174.401855,219.625634 177.826875,215.26968 C178.694365,214.164893 178.948342,212.816822 177.649196,211.953215 C176.336463,211.080128 174.594166,210.918991 173.060903,211.031682 C171.666647,211.131734 170.301655,211.470858 168.94398,211.806822" id="Fill-62" fill="#D61C71" transform="translate(168.775388, 217.521167) scale(-1, 1) rotate(39.000000) translate(-168.775388, -217.521167) "></path>
                <path d="M173.664469,82.5121962 C171.081762,84.5333708 168.526939,85.3626387 166,85 C163.473061,84.6373613 161.135371,83.1059731 158.986928,80.4058354 L161,71.9803922 L172,71.9803922" id="Fill-60" fill="#CBA285"></path>
                <path d="M169.135508,74.3765306 C169.368581,73.7899091 172.083931,73.0052897 172.585612,72.6440489 C174.768971,71.0716505 177.57107,70.3396901 177.545986,67.1959466 C177.535534,65.7646745 177.029672,46.9390748 174.361355,48.0470206 C174.008088,48.1944658 172.569935,54.1249247 172.271016,54.366103 C171.7986,54.7463011 170.180677,58.0069476 170.180677,58.5788246 L169.135508,59.632005 L166,59.632005 L168.090339,67.0042678 L171.225847,68.0574482 L167.045169,70.163809 C167.045169,70.163809 169.136553,74.3733711 169.135508,74.3765306" id="Fill-74" fill="#CBA285"></path>
                <path d="M159.135508,74.3765306 C159.368581,73.7899091 162.083931,73.0052897 162.585612,72.6440489 C164.768971,71.0716505 167.57107,70.3396901 167.545986,67.1959466 C167.535534,65.7646745 167.029672,46.9390748 164.361355,48.0470206 C164.008088,48.1944658 162.569935,54.1249247 162.271016,54.366103 C161.7986,54.7463011 160.180677,58.0069476 160.180677,58.5788246 L159.135508,59.632005 L156,59.632005 L158.090339,67.0042678 L161.225847,68.0574482 L157.045169,70.163809 C157.045169,70.163809 159.136553,74.3733711 159.135508,74.3765306" id="Fill-74" fill="#CBA285" transform="translate(161.773077, 61.188265) scale(-1, 1) translate(-161.773077, -61.188265) "></path>
                <path d="M159,48 C162.437037,46 165.103704,45 167,45 C168.896296,45 171.562963,46 175,48 L173.933333,71 C170.614815,73 168.125926,74 166.466667,74 C164.807407,74 162.318519,73 159,71 L159,48 Z" id="Rectangle-7" fill="#CBA285"></path>
                <path d="M156.5,58 C155.937953,50.1910081 155.771287,45.8576748 156,45 C156.34307,43.7134878 159,40 165,40 C171,40 169.039889,39.9639153 173,43 C175,44 175,44 177,45 C178.333333,45.6666667 178.333333,50 177,58 C175.243872,52.8951751 173.910538,49.7285084 173,48.5 C170.56984,45.2212018 175.5,50 169,51 C162.5,52 162.421741,46.7379449 160,50 C159.086152,51.2309416 157.919486,53.8976083 156.5,58 Z" id="Path-4" fill="#4A4A4A"></path>
                <path d="M247.35596,165.492618 C248.24749,166.170866 249.216362,166.87755 250.331558,166.914411 C251.6422,166.958645 252.831603,166.030793 253.489014,164.887039 C254.633475,162.894422 255.425713,160.33414 256.152106,158.163535 C259.07858,149.417925 259.813334,146.245746 260.12584,144.293149 C260.748761,140.38901 264.87718,137.959322 263.867546,133.782409 C263.011552,130.245829 259.534274,130.613389 256.662148,130.813493 C256.377862,130.833504 256.079989,130.857727 255.8396,131.012545 C255.636837,131.144192 255.498875,131.353775 255.375545,131.560198 C254.795476,132.529124 254.188233,133.775037 254.038773,134.917737 C253.855869,136.318467 254.022051,137.763431 254.519551,139.084119 C255.235492,140.987216 254.099393,142.918749 253.397039,144.630167 C252.65915,146.431106 252.232721,148.352107 251.435256,150.130928 C251.122751,150.828134 250.723496,151.955037 250.094304,152.433181 C249.190233,153.118801 248.759623,152.722805 247.646517,152.800741 C246.759169,152.864985 240.064041,145.010328 239.489198,145.694896 C237.814836,147.690673 234.163559,150.437404 232.489198,152.433181 C240.874426,159.980272 245.830013,164.333417 247.35596,165.492618 Z" id="Fill-70-Copy" fill="#CBA285" transform="translate(248.257481, 148.805413) rotate(85.000000) translate(-248.257481, -148.805413) "></path>
                <path d="M275,175.159541 L293,175.159541 C296.644919,187.159541 292.009287,219.307575 291,225 C289.856768,231.447883 286.801007,249.54146 286.660955,252.15756 C286.616012,252.992732 286.858492,254.046966 286.469689,254.814735 C285.758973,256.214411 283.181586,256.348165 281.911705,255.978499 C276.815459,254.496674 276.88235,248.636778 276.640916,244.334536 C276.340952,238.950678 276.099518,233.564714 275.810006,228.181909 C275.540353,223.1456 275.269654,218.109291 275,213.074036 L275,175.159541 Z" id="Fill-68" fill="#585A5B"></path>
                <path d="M248.120062,128.020658 C249.893714,134.25022 242.893942,140.786257 242.956652,147.271742 C243.020407,153.953119 242.488943,165.299031 242.031159,171.939334 C241.986217,172.590199 241.959043,173.260022 242.175393,173.874026 C243.30104,177.070429 246.933638,178.018469 249.554515,178.697592 C252.175393,179.376716 259.288742,179.376716 261.175393,179.376716 C267.123473,179.376716 273.71417,179.581012 278.103881,175.376716 C278.967191,174.549969 279.940284,172.59157 280.192129,171.376716 C280.548184,169.659177 280.548184,166.659177 280.192129,162.376716 C279.901572,152.897919 279.901572,147.465176 280.192129,146.078489 C280.390711,145.133786 280.464918,141.981617 281.156821,141.359188 C282.025356,140.576675 284.324729,142.071138 285.377214,142.498729 C285.62701,142.599834 285.887257,142.704099 286.156911,142.688301 C286.502862,142.669344 286.804916,142.457655 287.081886,142.249125 C289.689583,140.296529 291.968053,137.895277 293.788738,135.183338 C296.065116,131.791044 287.6306,126.861106 285.660455,125.57096 C283.178178,123.946956 280.610197,122.458812 278.019222,121.020168 C276.292602,120.061773 268.626285,119.05388 267.101383,119.798478 C265.313098,120.672618 263.773564,121.710533 261.883897,120.952243 C260.935929,120.573098 260.007818,120.078103 259.316962,119.320866 C257.627968,117.468322 246.99546,124.071231 248.120062,128.020658 Z" id="Fill-72" fill="#FFBA00" transform="translate(268.087696, 149.189159) scale(-1, 1) translate(-268.087696, -149.189159) "></path>
                <path d="M269.014871,257.90895 C269.009646,259.416051 269.005465,260.922099 269.000239,262.4292 C268.999194,262.592443 268.999194,262.758845 269.053543,262.91261 C269.612708,264.499753 272.58726,264.030034 273.72754,263.772005 C279.040136,262.572433 284.401855,259.625634 287.826875,255.26968 C288.694365,254.164893 288.948342,252.816822 287.649196,251.953215 C286.336463,251.080128 284.594166,250.918991 283.060903,251.031682 C281.666647,251.131734 280.301655,251.470858 278.94398,251.806822" id="Fill-62" fill="#F8B70A" transform="translate(278.775388, 257.521167) scale(-1, 1) rotate(39.000000) translate(-278.775388, -257.521167) "></path>
                <path d="M263.120062,128.020658 C264.893714,134.25022 257.893942,140.786257 257.956652,147.271742 C258.020407,153.953119 257.488943,165.299031 257.031159,171.939334 C256.986217,172.590199 256.959043,173.260022 257.175393,173.874026 C258.30104,177.070429 261.933638,178.018469 264.554515,178.697592 C267.175393,179.376716 274.288742,179.376716 276.175393,179.376716 C282.123473,179.376716 288.71417,179.581012 293.103881,175.376716 C293.967191,174.549969 294.940284,172.59157 295.192129,171.376716 C295.548184,169.659177 295.548184,166.659177 295.192129,162.376716 C294.901572,152.897919 294.901572,147.465176 295.192129,146.078489 C295.390711,145.133786 295.464918,141.981617 296.156821,141.359188 C297.025356,140.576675 299.324729,142.071138 300.377214,142.498729 C300.62701,142.599834 300.887257,142.704099 301.156911,142.688301 C301.502862,142.669344 301.804916,142.457655 302.081886,142.249125 C304.689583,140.296529 306.968053,137.895277 308.788738,135.183338 C311.065116,131.791044 302.6306,126.861106 300.660455,125.57096 C298.178178,123.946956 295.610197,122.458812 293.019222,121.020168 C291.292602,120.061773 283.626285,119.05388 282.101383,119.798478 C280.313098,120.672618 278.773564,121.710533 276.883897,120.952243 C275.935929,120.573098 275.007818,120.078103 274.316962,119.320866 C272.627968,117.468322 261.99546,124.071231 263.120062,128.020658 Z" id="Fill-72-Copy" fill="#FFBA00"></path>
                <path d="M283.664469,122.512196 C281.081762,124.533371 278.526939,125.362639 276,125 C273.473061,124.637361 271.135371,123.105973 268.986928,120.405835 L271,111.980392 L282,111.980392" id="Fill-60" fill="#CBA285"></path>
                <path d="M279.135508,114.376531 C279.368581,113.789909 282.083931,113.00529 282.585612,112.644049 C284.768971,111.071651 287.57107,110.33969 287.545986,107.195947 C287.535534,105.764674 287.029672,86.9390748 284.361355,88.0470206 C284.008088,88.1944658 282.569935,94.1249247 282.271016,94.366103 C281.7986,94.7463011 280.180677,98.0069476 280.180677,98.5788246 L279.135508,99.632005 L276,99.632005 L278.090339,107.004268 L281.225847,108.057448 L277.045169,110.163809 C277.045169,110.163809 279.136553,114.373371 279.135508,114.376531" id="Fill-74" fill="#CBA285"></path>
                <path d="M269.135508,114.376531 C269.368581,113.789909 272.083931,113.00529 272.585612,112.644049 C274.768971,111.071651 277.57107,110.33969 277.545986,107.195947 C277.535534,105.764674 277.029672,86.9390748 274.361355,88.0470206 C274.008088,88.1944658 272.569935,94.1249247 272.271016,94.366103 C271.7986,94.7463011 270.180677,98.0069476 270.180677,98.5788246 L269.135508,99.632005 L266,99.632005 L268.090339,107.004268 L271.225847,108.057448 L267.045169,110.163809 C267.045169,110.163809 269.136553,114.373371 269.135508,114.376531" id="Fill-74" fill="#CBA285" transform="translate(271.773077, 101.188265) scale(-1, 1) translate(-271.773077, -101.188265) "></path>
                <path d="M269,88 C272.437037,86 275.103704,85 277,85 C278.896296,85 281.562963,86 285,88 L283.933333,111 C280.614815,113 278.125926,114 276.466667,114 C274.807407,114 272.318519,113 269,111 L269,88 Z" id="Rectangle-7" fill="#CBA285"></path>
                <path d="M266.5,98 C265.937953,90.1910081 265.771287,85.8576748 266,85 C266.228713,84.1423252 267.562047,83.4756585 270,83 C269.333333,79.6666667 271,78 275,78 C281,78 279.039889,80.9639153 283,84 C285,85 285,84 287,85 C288.333333,85.6666667 288.333333,90 287,98 C285.243872,92.8951751 283.910538,89.7285084 283,88.5 C280.56984,85.2212018 285.5,90 279,91 C272.5,92 272.421741,86.7379449 270,90 C269.086152,91.2309416 267.919486,93.8976083 266.5,98 Z" id="Path-4" fill="#4A4A4A"></path>
                <g id="Rectangle-2-Copy-3" transform="translate(268.723946, 150.480990) rotate(-9.000000) translate(-268.723946, -150.480990) ">
                    <use fill="black" fill-opacity="1" filter="url(#filter-10)" xlink:href="#path-9"></use>
                    <use fill="#FFFFFF" fill-rule="evenodd" xlink:href="#path-9"></use>
                </g>
                <g id="Group" transform="translate(279.000000, 132.000000)">
                    <polygon id="Path-2-Copy" fill="#0F72C9" points="29.9056046 21.8285294 40.7617683 48.7000656 32.5666981 45.2212591 29.0192074 53.5791176 18.1163415 26.5919825"></polygon>
                    <polygon id="Path-2" fill="#0088FF" points="13.8755539 21.8285294 25.6648171 26.5919825 14.7619512 53.5791176 11.2144604 45.2212591 3.01939024 48.7000656"></polygon>
                    <g id="Oval">
                        <use fill="black" fill-opacity="1" filter="url(#filter-12)" xlink:href="#path-11"></use>
                        <use fill="#0088FF" fill-rule="evenodd" xlink:href="#path-11"></use>
                    </g>
                    <path d="M19.7304456,19.9402561 C19.6093058,19.9575618 19.4989837,19.9683777 19.399476,19.9727041 C19.2999683,19.9770305 19.2026253,19.9791937 19.107444,19.9791937 C18.7440246,19.9791937 18.4757905,19.909972 18.3027336,19.7715265 C18.1296767,19.633081 18.0431496,19.4081105 18.0431496,19.0966081 C18.0431496,18.8975927 18.0691077,18.6726221 18.1210248,18.4216897 L18.1469832,18.2789185 L16.9788552,18.2789185 L16.6154376,19.9402561 C16.4942978,19.9575618 16.3839757,19.9683777 16.284468,19.9727041 C16.1849603,19.9770305 16.0876173,19.9791937 15.992436,19.9791937 C15.6290166,19.9791937 15.3607825,19.909972 15.1877256,19.7715265 C15.0146687,19.633081 14.9281416,19.4081105 14.9281416,19.0966081 C14.9281416,18.8975927 14.9540997,18.6726221 15.0060168,18.4216897 L15.0319752,18.2789185 L14.0585352,18.2789185 C14.015271,18.1837372 13.9676811,18.0647624 13.915764,17.9219905 C13.8638469,17.7792186 13.8378888,17.6342856 13.8378888,17.4871873 C13.8378888,17.1843378 13.9092737,16.9658568 14.0520456,16.8317377 C14.1948175,16.6976186 14.370035,16.6305601 14.5777032,16.6305601 L15.3953928,16.6305601 L15.6809352,15.3196609 L14.4089736,15.3196609 C14.3657094,15.2244796 14.3181195,15.1055048 14.2662024,14.9627329 C14.2142853,14.819961 14.1883272,14.675028 14.1883272,14.5279297 C14.1883272,14.2250802 14.2597121,14.0065992 14.402484,13.8724801 C14.5452559,13.738361 14.7204734,13.6713025 14.9281416,13.6713025 L16.0443528,13.6713025 L16.4207496,11.9969857 C16.5418894,11.97968 16.6543747,11.9710273 16.7582088,11.9710273 L17.0567304,11.9710273 C17.4201498,11.9710273 17.6905471,12.0380858 17.8679304,12.1722049 C18.0453137,12.306324 18.134004,12.5291313 18.134004,12.8406337 C18.134004,12.935815 18.1253513,13.0439739 18.1080456,13.1651137 C18.0907399,13.2862535 18.0691081,13.4073915 18.0431496,13.5285313 L18.004212,13.6713025 L19.1593608,13.6713025 L19.5357576,11.9969857 C19.6568974,11.97968 19.7693827,11.9710273 19.8732168,11.9710273 L20.1717384,11.9710273 C20.5351578,11.9710273 20.8055551,12.0380858 20.9829384,12.1722049 C21.1603217,12.306324 21.249012,12.5291313 21.249012,12.8406337 C21.249012,12.935815 21.2403593,13.0439739 21.2230536,13.1651137 C21.2057479,13.2862535 21.1841161,13.4073915 21.1581576,13.5285313 L21.11922,13.6713025 L22.09266,13.6713025 C22.1532299,13.7578309 22.2073094,13.8746426 22.2549,14.0217409 C22.3024906,14.1688392 22.3262856,14.3202617 22.3262856,14.4760129 C22.3262856,14.7788624 22.2549007,14.9951802 22.1121288,15.1249729 C21.9693569,15.2547655 21.7984658,15.3196609 21.5994504,15.3196609 L20.7558024,15.3196609 L20.47026,16.6305601 L21.7422216,16.6305601 C21.8027915,16.7170885 21.856871,16.8339002 21.9044616,16.9809985 C21.9520522,17.1280968 21.9758472,17.2795193 21.9758472,17.4352705 C21.9758472,17.73812 21.9044623,17.9544378 21.7616904,18.0842305 C21.6189185,18.2140231 21.4480274,18.2789185 21.249012,18.2789185 L20.0938632,18.2789185 L19.7304456,19.9402561 Z M17.355252,16.6305601 L18.5104008,16.6305601 L18.7959432,15.3196609 L17.6407944,15.3196609 L17.355252,16.6305601 Z M24.7274376,14.1645121 L23.4295176,14.5668673 C23.299725,14.4803389 23.1699342,14.3592009 23.0401416,14.2034497 C22.910349,14.0476985 22.8454536,13.8313807 22.8454536,13.5544897 C22.8454536,13.0353191 23.1612776,12.6719051 23.7929352,12.4642369 L25.2466056,11.9710273 L25.726836,11.9710273 C26.0989083,11.9710273 26.3931005,12.0791862 26.6094216,12.2955073 C26.8257427,12.5118284 26.9339016,12.8060206 26.9339016,13.1780929 L26.9339016,19.9402561 C26.8387203,19.9575618 26.6981137,19.9813567 26.5120776,20.0116417 C26.3260415,20.0419266 26.137845,20.0570689 25.9474824,20.0570689 C25.7571198,20.0570689 25.5862288,20.0440898 25.434804,20.0181313 C25.2833792,19.9921728 25.1557517,19.9402565 25.0519176,19.8623809 C24.9480835,19.7845053 24.8680459,19.6785096 24.8118024,19.5443905 C24.7555589,19.4102714 24.7274376,19.235054 24.7274376,19.0187329 L24.7274376,14.1645121 Z" id="#1" fill="#FFFFFF"></path>
                </g>
                <path d="M232.206215,152.466765 C232.601697,152.466765 232.905366,152.380355 233.117232,152.207533 C233.329097,152.034711 233.435028,151.771051 233.435028,151.416544 C233.435028,151.079762 233.324389,150.820533 233.103107,150.638848 C232.881826,150.457163 232.559324,150.366322 232.135593,150.366322 C231.984933,150.366322 231.86017,150.368538 231.761299,150.372969 C231.662429,150.3774 231.561206,150.388478 231.457627,150.406204 L231.457627,152.466765 L232.206215,152.466765 Z M231.471751,156.734121 C231.368173,156.760709 231.205745,156.787297 230.984463,156.813885 C230.763182,156.840473 230.544257,156.853767 230.327684,156.853767 C230.11111,156.853767 229.920434,156.838257 229.75565,156.807238 C229.590865,156.776218 229.451978,156.720828 229.338983,156.641064 C229.225988,156.561299 229.141243,156.450518 229.084746,156.308715 C229.028248,156.166912 229,155.980799 229,155.750369 L229,149.488922 C229,149.302806 229.054143,149.158789 229.162429,149.056869 C229.270716,148.954948 229.41902,148.872969 229.607345,148.810931 C229.927497,148.704578 230.292371,148.627031 230.701977,148.578287 C231.111584,148.529542 231.523538,148.50517 231.937853,148.50517 C233.237295,148.50517 234.230693,148.766615 234.918079,149.289513 C235.605465,149.81241 235.949153,150.521414 235.949153,151.416544 C235.949153,151.850815 235.876178,152.242982 235.730226,152.593058 C235.584274,152.943133 235.367704,153.24446 235.080508,153.497046 C234.793313,153.749632 234.430793,153.944608 233.992938,154.081979 C233.555083,154.219351 233.048967,154.288035 232.474576,154.288035 L231.471751,154.288035 L231.471751,156.734121 Z M239.423729,156.774003 C239.329566,156.800591 239.181263,156.827179 238.978814,156.853767 C238.776364,156.880355 238.566856,156.893648 238.350282,156.893648 C238.143125,156.893648 237.957157,156.880355 237.792373,156.853767 C237.627589,156.827179 237.488701,156.774003 237.375706,156.694239 C237.262711,156.614475 237.175612,156.505909 237.114407,156.368538 C237.053201,156.231166 237.022599,156.0517 237.022599,155.830133 L237.022599,151.84195 C237.022599,151.638108 237.062617,151.463073 237.142655,151.316839 C237.222693,151.170605 237.338041,151.039882 237.488701,150.924668 C237.63936,150.809453 237.825328,150.705318 238.04661,150.61226 C238.267892,150.519202 238.505648,150.437223 238.759887,150.366322 C239.014126,150.295421 239.277776,150.24003 239.550847,150.200148 C239.823919,150.160266 240.096985,150.140325 240.370056,150.140325 C240.822036,150.140325 241.179848,150.222303 241.443503,150.386263 C241.707158,150.550222 241.838983,150.818314 241.838983,151.190547 C241.838983,151.314624 241.820151,151.436484 241.782486,151.55613 C241.744821,151.675776 241.69774,151.784342 241.641243,151.881832 C241.443502,151.881832 241.241056,151.890694 241.033898,151.908419 C240.826741,151.926145 240.624295,151.952732 240.426554,151.988183 C240.228813,152.023634 240.042845,152.0613 239.868644,152.101182 C239.694444,152.141064 239.54614,152.187592 239.423729,152.240768 L239.423729,156.774003 Z M249.932203,153.556869 C249.932203,154.106354 249.84275,154.59601 249.663842,155.025849 C249.484933,155.455689 249.233052,155.816838 248.908192,156.109306 C248.583332,156.401774 248.194918,156.623338 247.742938,156.774003 C247.290958,156.924668 246.787197,157 246.231638,157 C245.67608,157 245.172319,156.920237 244.720339,156.760709 C244.268359,156.601181 243.879945,156.37297 243.555085,156.076071 C243.230224,155.779171 242.978344,155.418023 242.799435,154.992614 C242.620526,154.567206 242.531073,154.088629 242.531073,153.556869 C242.531073,153.033971 242.620526,152.559825 242.799435,152.134417 C242.978344,151.709008 243.230224,151.34786 243.555085,151.05096 C243.879945,150.754061 244.268359,150.52585 244.720339,150.366322 C245.172319,150.206794 245.67608,150.127031 246.231638,150.127031 C246.787197,150.127031 247.290958,150.20901 247.742938,150.372969 C248.194918,150.536928 248.583332,150.767354 248.908192,151.064254 C249.233052,151.361154 249.484933,151.722302 249.663842,152.14771 C249.84275,152.573119 249.932203,153.042833 249.932203,153.556869 Z M244.988701,153.556869 C244.988701,154.097492 245.09934,154.511815 245.320621,154.799852 C245.541903,155.087889 245.850281,155.231905 246.245763,155.231905 C246.641245,155.231905 246.944914,155.085674 247.15678,154.793205 C247.368645,154.500737 247.474576,154.088629 247.474576,153.556869 C247.474576,153.025108 247.366291,152.615216 247.149718,152.327179 C246.933144,152.039142 246.627121,151.895126 246.231638,151.895126 C245.836156,151.895126 245.530133,152.039142 245.313559,152.327179 C245.096986,152.615216 244.988701,153.025108 244.988701,153.556869 Z M250.80791,153.556869 C250.80791,152.971932 250.902071,152.464552 251.090395,152.034712 C251.27872,151.604872 251.540017,151.248155 251.874294,150.964549 C252.20857,150.680944 252.599339,150.470459 253.04661,150.333087 C253.493882,150.195716 253.976457,150.127031 254.49435,150.127031 C254.682675,150.127031 254.866289,150.14254 255.045198,150.17356 C255.224106,150.204579 255.370056,150.242245 255.483051,150.286558 L255.483051,148.132939 C255.577213,148.106351 255.727871,148.077548 255.935028,148.046529 C256.142186,148.015509 256.354048,148 256.570621,148 C256.777779,148 256.963747,148.013294 257.128531,148.039882 C257.293315,148.06647 257.432203,148.119645 257.545198,148.199409 C257.658193,148.279173 257.742938,148.387739 257.799435,148.525111 C257.855932,148.662482 257.884181,148.841949 257.884181,149.063516 L257.884181,155.364845 C257.884181,155.781391 257.677027,156.113736 257.262712,156.361891 C256.989641,156.530281 256.636537,156.678729 256.20339,156.807238 C255.770243,156.935747 255.271189,157 254.706215,157 C254.094159,157 253.545671,156.920237 253.060734,156.760709 C252.575798,156.601181 252.166198,156.370755 251.831921,156.069424 C251.497644,155.768093 251.24341,155.406944 251.069209,154.985968 C250.895009,154.564991 250.80791,154.088629 250.80791,153.556869 Z M254.819209,151.895126 C254.310732,151.895126 253.919964,152.032495 253.646893,152.307238 C253.373822,152.581981 253.237288,152.99852 253.237288,153.556869 C253.237288,154.106354 253.364406,154.520678 253.618644,154.799852 C253.872883,155.079027 254.240111,155.218612 254.720339,155.218612 C254.889831,155.218612 255.042843,155.19424 255.179379,155.145495 C255.315914,155.09675 255.421845,155.041359 255.497175,154.979321 L255.497175,152.054653 C255.30885,151.948301 255.082864,151.895126 254.819209,151.895126 Z M259.381356,150.419498 C259.475518,150.39291 259.623822,150.366322 259.826271,150.339734 C260.02872,150.313146 260.238229,150.299852 260.454802,150.299852 C260.66196,150.299852 260.847928,150.313146 261.012712,150.339734 C261.177496,150.366322 261.316384,150.419497 261.429379,150.499261 C261.542373,150.579026 261.629472,150.687592 261.690678,150.824963 C261.751884,150.962335 261.782486,151.141801 261.782486,151.363368 L261.782486,154.221566 C261.782486,154.584935 261.876647,154.844165 262.064972,154.999261 C262.253297,155.154358 262.526364,155.231905 262.884181,155.231905 C263.100754,155.231905 263.277306,155.21418 263.413842,155.17873 C263.550377,155.143279 263.656308,155.107829 263.731638,155.072378 L263.731638,150.419498 C263.825801,150.39291 263.974104,150.366322 264.176554,150.339734 C264.379003,150.313146 264.588511,150.299852 264.805085,150.299852 C265.012242,150.299852 265.19821,150.313146 265.362994,150.339734 C265.527779,150.366322 265.666666,150.419497 265.779661,150.499261 C265.892656,150.579026 265.979755,150.687592 266.04096,150.824963 C266.102166,150.962335 266.132768,151.141801 266.132768,151.363368 L266.132768,155.404727 C266.132768,155.84786 265.93503,156.180206 265.539548,156.401773 C265.20998,156.596751 264.816857,156.745199 264.360169,156.84712 C263.903482,156.94904 263.406782,157 262.870056,157 C262.361579,157 261.893128,156.946825 261.464689,156.840473 C261.03625,156.734121 260.666668,156.570164 260.355932,156.348597 C260.045196,156.12703 259.805086,155.841213 259.635593,155.491137 C259.466101,155.141062 259.381356,154.717875 259.381356,154.221566 L259.381356,150.419498 Z M271.471751,151.908419 C271.236345,151.908419 271.012713,151.94387 270.800847,152.014771 C270.588982,152.085672 270.405368,152.189807 270.25,152.327179 C270.094632,152.46455 269.969869,152.635154 269.875706,152.838996 C269.781544,153.042837 269.734463,153.282126 269.734463,153.556869 C269.734463,154.106354 269.901599,154.518462 270.235876,154.793205 C270.570152,155.067948 270.977399,155.205318 271.457627,155.205318 C271.740114,155.205318 271.984933,155.174299 272.19209,155.11226 C272.399248,155.050221 272.582862,154.983752 272.742938,154.912851 C272.931263,155.036928 273.072504,155.172082 273.166667,155.318316 C273.260829,155.46455 273.30791,155.639585 273.30791,155.843427 C273.30791,156.206796 273.124296,156.488182 272.757062,156.687592 C272.389829,156.887002 271.881359,156.986706 271.231638,156.986706 C270.638415,156.986706 270.101697,156.904728 269.621469,156.740768 C269.141241,156.576809 268.729286,156.346383 268.385593,156.049483 C268.0419,155.752583 267.775895,155.395866 267.587571,154.979321 C267.399246,154.562775 267.305085,154.101923 267.305085,153.59675 C267.305085,153.011814 267.406308,152.500002 267.608757,152.0613 C267.811206,151.622598 268.086627,151.261449 268.435028,150.977843 C268.783429,150.694238 269.185968,150.481537 269.642655,150.339734 C270.099343,150.197931 270.581918,150.127031 271.090395,150.127031 C271.768365,150.127031 272.290959,150.242244 272.658192,150.472674 C273.025426,150.703103 273.20904,150.999998 273.20904,151.363368 C273.20904,151.531759 273.166667,151.689069 273.081921,151.835303 C272.997175,151.981537 272.898306,152.107828 272.785311,152.21418 C272.625235,152.143279 272.432205,152.074594 272.206215,152.008124 C271.980225,151.941654 271.735406,151.908419 271.471751,151.908419 Z M276.909605,154.567208 C276.909605,154.797638 276.987287,154.961595 277.142655,155.059084 C277.298023,155.156574 277.516948,155.205318 277.799435,155.205318 C277.940679,155.205318 278.086628,155.194239 278.237288,155.172083 C278.387948,155.149926 278.519773,155.121123 278.632768,155.085672 C278.717515,155.183161 278.790489,155.291728 278.851695,155.411374 C278.9129,155.53102 278.943503,155.675036 278.943503,155.843427 C278.943503,156.180208 278.809323,156.454947 278.54096,156.667651 C278.272598,156.880356 277.799438,156.986706 277.121469,156.986706 C276.29284,156.986706 275.654899,156.809455 275.207627,156.454948 C274.760356,156.100441 274.536723,155.524376 274.536723,154.726736 L274.536723,149.036928 C274.640302,149.01034 274.788605,148.981536 274.981638,148.950517 C275.174671,148.919498 275.379472,148.903988 275.596045,148.903988 C276.01036,148.903988 276.332861,148.972673 276.563559,149.110044 C276.794257,149.247416 276.909605,149.537664 276.909605,149.980798 L276.909605,150.83161 L278.759887,150.83161 C278.816384,150.929099 278.870527,151.050959 278.922316,151.197194 C278.974106,151.343428 279,151.505169 279,151.682422 C279,151.992616 278.927025,152.216395 278.781073,152.353767 C278.635122,152.491138 278.439738,152.559823 278.194915,152.559823 L276.909605,152.559823 L276.909605,154.567208 Z" id="Product" fill="#4A4A4A" transform="translate(254.000000, 152.500000) rotate(-9.000000) translate(-254.000000, -152.500000) "></path>
                <path d="M225.378348,158.087513 C224.522355,154.550934 221.045076,154.918494 218.172951,155.118598 C217.888665,155.138608 217.590791,155.162831 217.350402,155.317649 C217.14764,155.449296 217.009677,155.658879 216.886347,155.865303 C216.306278,156.834229 215.699035,158.080141 215.549576,159.222842 C215.366671,160.623572 215.532853,162.068535 216.030354,163.389223 C216.746295,165.29232 226.387982,162.264427 225.378348,158.087513 Z" id="Fill-70" fill="#CBA285" transform="translate(220.464869, 159.485415) rotate(95.000000) translate(-220.464869, -159.485415) "></path>
                <path d="M323.378348,140.087513 C322.522355,136.550934 319.045076,136.918494 316.172951,137.118598 C315.888665,137.138608 315.590791,137.162831 315.350402,137.317649 C315.14764,137.449296 315.009677,137.658879 314.886347,137.865303 C314.306278,138.834229 313.699035,140.080141 313.549576,141.222842 C313.366671,142.623572 313.532853,144.068535 314.030354,145.389223 C314.746295,147.29232 324.387982,144.264427 323.378348,140.087513 Z" id="Fill-70" fill="#CBA285" transform="translate(318.464869, 141.485415) scale(-1, 1) rotate(-225.000000) translate(-318.464869, -141.485415) "></path>
            </g>
        </g>
    </g>
</svg>