<?xml version="1.0" encoding="UTF-8"?>
<svg width="396px" height="417px" viewBox="0 0 396 417" version="1.1" xmlns="http://www.w3.org/2000/svg" xmlns:xlink="http://www.w3.org/1999/xlink">
    <!-- Generator: Sketch 49.3 (51167) - http://www.bohemiancoding.com/sketch -->
    <title>Group 6</title>
    <desc>Created with Sketch.</desc>
    <defs>
        <rect id="path-1" x="0" y="25" width="157" height="243"></rect>
        <filter x="-32.5%" y="-19.8%" width="165.0%" height="142.0%" filterUnits="objectBoundingBox" id="filter-2">
            <feOffset dx="0" dy="3" in="SourceAlpha" result="shadowOffsetOuter1"></feOffset>
            <feGaussianBlur stdDeviation="16.5" in="shadowOffsetOuter1" result="shadowBlurOuter1"></feGaussianBlur>
            <feColorMatrix values="0 0 0 0 0.607843137   0 0 0 0 0.588235294   0 0 0 0 0.588235294  0 0 0 0.5 0" type="matrix" in="shadowBlurOuter1"></feColorMatrix>
        </filter>
        <rect id="path-3" x="173" y="25" width="157" height="243"></rect>
        <filter x="-32.5%" y="-19.8%" width="165.0%" height="142.0%" filterUnits="objectBoundingBox" id="filter-4">
            <feOffset dx="0" dy="3" in="SourceAlpha" result="shadowOffsetOuter1"></feOffset>
            <feGaussianBlur stdDeviation="16.5" in="shadowOffsetOuter1" result="shadowBlurOuter1"></feGaussianBlur>
            <feColorMatrix values="0 0 0 0 0.607843137   0 0 0 0 0.588235294   0 0 0 0 0.588235294  0 0 0 0.5 0" type="matrix" in="shadowBlurOuter1"></feColorMatrix>
        </filter>
        <ellipse id="path-5" cx="87.2268293" cy="66.637037" rx="66.4585366" ry="66.637037"></ellipse>
        <filter x="-4.5%" y="-4.5%" width="109.0%" height="109.0%" filterUnits="objectBoundingBox" id="filter-6">
            <feOffset dx="0" dy="0" in="SourceAlpha" result="shadowOffsetOuter1"></feOffset>
            <feGaussianBlur stdDeviation="2" in="shadowOffsetOuter1" result="shadowBlurOuter1"></feGaussianBlur>
            <feColorMatrix values="0 0 0 0 0   0 0 0 0 0   0 0 0 0 0  0 0 0 0.5 0" type="matrix" in="shadowBlurOuter1"></feColorMatrix>
        </filter>
        <polygon id="path-7" points="0.0335296965 0.645088514 19.5683451 0.645088514 19.5683451 13.6024404 0.0335296965 13.6024404"></polygon>
    </defs>
    <g id="Landing-Page" stroke="none" stroke-width="1" fill="none" fill-rule="evenodd">
        <g id="Kudos" transform="translate(-189.000000, -1529.000000)">
            <g id="Group-6" transform="translate(222.000000, 1534.000000)">
                <g id="Rectangle-2">
                    <use fill="black" fill-opacity="1" filter="url(#filter-2)" xlink:href="#path-1"></use>
                    <use fill="#FFFFFF" fill-rule="evenodd" xlink:href="#path-1"></use>
                </g>
                <g id="Rectangle-2-Copy">
                    <use fill="black" fill-opacity="1" filter="url(#filter-4)" xlink:href="#path-3"></use>
                    <use fill="#FFFFFF" fill-rule="evenodd" xlink:href="#path-3"></use>
                </g>
                <path d="M99,145.72 C99,134.279943 97.3425166,125.440031 94.0275,119.2 C90.7124834,112.959969 86.0000305,109.84 79.89,109.84 C73.7799694,109.84 69.1325159,112.959969 65.9475,119.2 C62.7624841,125.440031 61.17,134.279943 61.17,145.72 C61.17,157.160057 62.7624841,166.032468 65.9475,172.3375 C69.1325159,178.642532 73.7799694,181.795 79.89,181.795 C86.0000305,181.795 90.7124834,178.642532 94.0275,172.3375 C97.3425166,166.032468 99,157.160057 99,145.72 Z M132.345,145.72 C132.345,155.73005 131.045013,164.634961 128.445,172.435 C125.844987,180.235039 122.237523,186.767474 117.6225,192.0325 C113.007477,197.297526 107.482532,201.294986 101.0475,204.025 C94.6124678,206.755014 87.6250377,208.12 80.085,208.12 C72.4149616,208.12 65.3625322,206.755014 58.9275,204.025 C52.4924678,201.294986 46.9675231,197.297526 42.3525,192.0325 C37.7374769,186.767474 34.1625127,180.235039 31.6275,172.435 C29.0924873,164.634961 27.825,155.73005 27.825,145.72 C27.825,135.70995 29.0924873,126.837539 31.6275,119.1025 C34.1625127,111.367461 37.7374769,104.867526 42.3525,99.6025 C46.9675231,94.3374737 52.4924678,90.3400137 58.9275,87.61 C65.3625322,84.8799863 72.4149616,83.515 80.085,83.515 C87.6250377,83.515 94.6124678,84.8799863 101.0475,87.61 C107.482532,90.3400137 113.007477,94.3374737 117.6225,99.6025 C122.237523,104.867526 125.844987,111.367461 128.445,119.1025 C131.045013,126.837539 132.345,135.70995 132.345,145.72 Z" id="0" fill="#4A4A4A"></path>
                <path d="M289.46,86.44 C291.670011,87.8700071 293.652491,89.8524873 295.4075,92.3875 C297.162509,94.9225127 298.04,98.0749811 298.04,101.845 C298.04,103.92501 297.845002,106.037489 297.455,108.1825 C297.064998,110.327511 296.415005,112.43999 295.505,114.52 L254.945,206.365 C253.124991,206.495001 251.402508,206.56 249.7775,206.56 L245.195,206.56 C239.344971,206.56 234.600018,205.455011 230.96,203.245 C227.319982,201.034989 225.5,197.200027 225.5,191.74 C225.5,189.009986 226.149993,186.052516 227.45,182.8675 C228.750007,179.682484 230.504989,175.880022 232.715,171.46 L261.185,113.155 L213.41,113.155 C212.629996,111.724993 211.850004,109.840012 211.07,107.5 C210.289996,105.159988 209.9,102.690013 209.9,100.09 C209.9,95.1499753 211.004989,91.6400104 213.215,89.56 C215.425011,87.4799896 218.219983,86.44 221.6,86.44 L289.46,86.44 Z" id="7" fill="#4A4A4A"></path>
                <g id="Group" transform="translate(84.000000, 156.000000)">
                    <polygon id="Path-2-Copy" fill="#0F72C9" points="123.419956 91.6259259 168.223171 204.420029 134.402246 189.817631 119.761808 224.9 74.7658537 111.620667"></polygon>
                    <polygon id="Path-2" fill="#0088FF" points="57.2641907 91.6259259 105.918293 111.620667 60.9223382 224.9 46.2819001 189.817631 12.4609756 204.420029"></polygon>
                    <g id="Oval">
                        <use fill="black" fill-opacity="1" filter="url(#filter-6)" xlink:href="#path-5"></use>
                        <use fill="#0088FF" fill-rule="evenodd" xlink:href="#path-5"></use>
                    </g>
                    <path d="M81.39144,81.9348089 C80.8866908,82.0069159 80.4270154,82.0519821 80.0124,82.0700089 C79.5977846,82.0880356 79.1921886,82.0970489 78.7956,82.0970489 C77.2813524,82.0970489 76.1637103,81.8086251 75.44264,81.2317689 C74.7215697,80.6549127 74.36104,79.7175354 74.36104,78.4196089 C74.36104,77.5903781 74.4691989,76.6530008 74.68552,75.6074489 L74.79368,75.0125689 L69.92648,75.0125689 L68.41224,81.9348089 C67.9074908,82.0069159 67.4478154,82.0519821 67.0332,82.0700089 C66.6185846,82.0880356 66.2129886,82.0970489 65.8164,82.0970489 C64.3021524,82.0970489 63.1845103,81.8086251 62.46344,81.2317689 C61.7423697,80.6549127 61.38184,79.7175354 61.38184,78.4196089 C61.38184,77.5903781 61.4899989,76.6530008 61.70632,75.6074489 L61.81448,75.0125689 L57.75848,75.0125689 C57.5782124,74.6159802 57.3799211,74.1202519 57.1636,73.5253689 C56.9472789,72.9304859 56.83912,72.3265986 56.83912,71.7136889 C56.83912,70.4518159 57.136557,69.5414783 57.73144,68.9826489 C58.326323,68.4238194 59.0563957,68.1444089 59.92168,68.1444089 L63.32872,68.1444089 L64.51848,62.6823289 L59.21864,62.6823289 C59.0383724,62.2857402 58.8400811,61.7900119 58.62376,61.1951289 C58.4074389,60.6002459 58.29928,59.9963586 58.29928,59.3834489 C58.29928,58.1215759 58.596717,57.2112383 59.1916,56.6524089 C59.786483,56.0935794 60.5165557,55.8141689 61.38184,55.8141689 L66.03272,55.8141689 L67.60104,48.8378489 C68.1057892,48.7657419 68.5744778,48.7296889 69.00712,48.7296889 L70.25096,48.7296889 C71.7652076,48.7296889 72.891863,49.0090994 73.63096,49.5679289 C74.370057,50.1267583 74.7396,51.0551224 74.7396,52.3530489 C74.7396,52.7496375 74.703547,53.2002997 74.63144,53.7050489 C74.559333,54.2097981 74.4692005,54.7145397 74.36104,55.2192889 L74.1988,55.8141689 L79.01192,55.8141689 L80.58024,48.8378489 C81.0849892,48.7657419 81.5536778,48.7296889 81.98632,48.7296889 L83.23016,48.7296889 C84.7444076,48.7296889 85.871063,49.0090994 86.61016,49.5679289 C87.349257,50.1267583 87.7188,51.0551224 87.7188,52.3530489 C87.7188,52.7496375 87.682747,53.2002997 87.61064,53.7050489 C87.538533,54.2097981 87.4484005,54.7145397 87.34024,55.2192889 L87.178,55.8141689 L91.234,55.8141689 C91.4863746,56.174704 91.7117057,56.6614192 91.91,57.2743289 C92.1082943,57.8872386 92.20744,58.5181656 92.20744,59.1671289 C92.20744,60.4290019 91.910003,61.3303262 91.31512,61.8711289 C90.720237,62.4119316 90.0081908,62.6823289 89.17896,62.6823289 L85.66376,62.6823289 L84.474,68.1444089 L89.77384,68.1444089 C90.0262146,68.504944 90.2515457,68.9916592 90.44984,69.6045689 C90.6481343,70.2174786 90.74728,70.8484056 90.74728,71.4973689 C90.74728,72.7592419 90.449843,73.6605662 89.85496,74.2013689 C89.260077,74.7421716 88.5480308,75.0125689 87.7188,75.0125689 L82.90568,75.0125689 L81.39144,81.9348089 Z M71.4948,68.1444089 L76.30792,68.1444089 L77.49768,62.6823289 L72.68456,62.6823289 L71.4948,68.1444089 Z M102.21224,57.8692089 L96.80424,59.5456889 C96.2634373,59.1851538 95.7226427,58.6804121 95.18184,58.0314489 C94.6410373,57.3824856 94.37064,56.4811613 94.37064,55.3274489 C94.37064,53.1642381 95.6865735,51.6500132 98.31848,50.7847289 L104.37544,48.7296889 L106.3764,48.7296889 C107.926701,48.7296889 109.152502,49.180351 110.05384,50.0816889 C110.955178,50.9830267 111.40584,52.2088278 111.40584,53.7591289 L111.40584,81.9348089 C111.009251,82.0069159 110.423391,82.1060616 109.64824,82.2322489 C108.873089,82.3584362 108.088937,82.4215289 107.29576,82.4215289 C106.502583,82.4215289 105.790536,82.3674494 105.1596,82.2592889 C104.528664,82.1511283 103.996882,81.9348105 103.56424,81.6103289 C103.131598,81.2858473 102.798108,80.8441983 102.56376,80.2853689 C102.329412,79.7265394 102.21224,78.9964667 102.21224,78.0951289 L102.21224,57.8692089 Z" id="#1" fill="#FFFFFF"></path>
                </g>
                <path d="M0.651639344,147 L158.105829,147" id="Line" stroke="#DFDFDF" stroke-width="1.3" stroke-linecap="square"></path>
                <path d="M173.651639,147 L331.105829,147" id="Line" stroke="#DFDFDF" stroke-width="1.3" stroke-linecap="square"></path>
                <g id="Group-5" transform="translate(330.500000, 312.000000) scale(-1, 1) translate(-330.500000, -312.000000) translate(299.000000, 212.000000)">
                    <polyline id="Fill-39" fill="#F9D4BB" points="25 62.9090909 17.5333333 64 9 60.7272727 12.2 55.2727273 13.2666667 52 19.6666667 52"></polyline>
                    <g id="Group-43" transform="translate(22.000000, 186.000000)">
                        <mask id="mask-8" fill="white">
                            <use xlink:href="#path-7"></use>
                        </mask>
                        <g id="Clip-42"></g>
                        <path d="M0.0483890005,7.5091749 C0.0431674197,9.00648968 0.038990155,10.5027581 0.0337685742,12.0000729 C0.032724258,12.1622558 0.032724258,12.3275778 0.0870286987,12.4803437 C0.645737848,14.0571804 3.61786166,13.5905121 4.7572106,13.3341584 C10.0654697,12.1423754 15.4228116,9.21471165 18.8450357,4.88704293 C19.7118181,3.78943062 19.9655869,2.45011342 18.6675019,1.59211333 C17.3558408,0.72469617 15.6149658,0.56460591 14.082954,0.676564458 C12.6898362,0.775966907 11.3259593,1.11288889 9.96939259,1.44667185" id="Fill-41" fill="#FFBA00" mask="url(#mask-8)"></path>
                    </g>
                    <path d="M10.0152132,185.886524 C10.0098672,187.388734 10.0055905,188.889893 10.0002446,190.392103 C9.99917538,190.554816 9.99917538,190.720678 10.054773,190.873943 C10.6267867,192.455935 13.669686,191.987741 14.8361664,191.730549 C20.2708316,190.53487 25.7557485,187.597636 29.2594663,183.255821 C30.1468895,182.154621 30.4067014,180.810925 29.0777049,179.950121 C27.7348091,179.079868 25.9524784,178.919254 24.3839846,179.031579 C22.9576924,179.131306 19.9532838,180.302841 18.564413,180.637715" id="Fill-44" fill="#FFBA00"></path>
                    <path d="M7.77344444,122.161477 C7.18268961,122.373296 8.57970149,131.12005 8.64295836,131.955733 C8.88848078,135.224701 8.96781991,138.559005 8.68584437,141.826919 C8.43603334,144.720724 7.64156995,147.534439 7.26202874,150.411383 C6.500802,156.190563 7.57080803,162.009789 8.2773551,167.748924 C8.68370007,171.054775 9.12864245,174.354304 9.61003795,177.648563 C9.85019962,179.296746 10.1010828,180.942822 10.3616153,182.587844 C10.5256543,183.629024 10.473119,185.741944 11.2332735,186.554444 C11.3855189,186.718841 11.5763617,186.842138 11.7650601,186.964382 C14.7992455,188.935036 18.2140443,188.098299 18.8401801,184.410962 C19.0824861,182.981975 19.3419465,181.552987 19.567098,180.121892 C19.567098,180.11873 21.0541705,170.657483 21.0541705,170.657483 L26,132.699734 L19.567098,119 C19.567098,119 7.82705196,122.141454 7.77344444,122.161477" id="Fill-46" fill="#494E50"></path>
                    <path d="M32,113.153734 L32,150.998536 C31.7334,156.024536 31.4657667,161.051587 31.1991667,166.078638 C30.9129333,171.451549 30.6742333,176.827613 30.3776667,182.201575 C30.1389667,186.495909 30.2051,192.345033 25.1665667,193.824134 C23.9110667,194.193121 21.3628667,194.059613 20.6602,192.662509 C20.2758,191.896152 20.5155333,190.843856 20.4711,190.010219 C20.3326333,187.398928 20.1817667,184.787636 20.0391667,182.175294 C19.9089667,179.79002 19.8666,177.379516 19.6537333,175.002653 C19.3044667,171.125663 18.3827333,167.328568 18.0169333,163.45368 C17.4413667,157.357514 18.9242,151.347549 19.3458,145.295534 C19.5938,141.743379 19.1928667,138.189121 18.4757333,134.714758 C17.9342667,132.098211 17.6831667,127.222539 14.9262333,126.139757 C12.8595667,125.328196 10.7939333,124.516635 8.7283,123.705075 C7.95743333,123.402316 7.1783,123.095353 6.50766667,122.604422 C4.472,121.116911 2.21106667,117.392351 1.7998,114.884082 C1.5332,113.255704 1.2666,111.628378 1,110" id="Fill-48" fill="#585A5B"></path>
                    <path d="M39,84.3976631 C41.3339895,86.1268998 43.6679791,87.8571834 46.0019686,89.5853734 C46.9110522,90.2594827 47.8990012,90.9618543 49.036155,90.9984906 C50.3726038,91.0424543 51.5854257,90.1202645 52.2557816,88.9834902 C53.4227764,87.0030325 54.2306139,84.4583748 54.9713092,82.3010158 C57.9554054,73.6087747 58.7046267,70.4559531 59.0232855,68.5152722 C59.6584717,64.6349569 63.8681789,62.2200966 62.8386657,58.0686722 C61.9658175,54.5536739 58.4200718,54.9189909 55.4913945,55.1178741 C55.2015109,55.1377624 54.8977725,55.1618377 54.6526503,55.3157105 C54.4458951,55.4465547 54.3052163,55.6548586 54.1794579,55.8600223 C53.5879674,56.8230355 52.9687675,58.0613449 52.8163654,59.1970725 C52.6298594,60.5892546 52.7993134,62.0254004 53.3066098,63.3380293 C54.0366476,65.2295129 52.8781788,67.1492588 52.1619958,68.8502333 C51.4095772,70.6401818 50.9747518,72.5494602 50.1615856,74.3174268 C49.8429267,75.0103776 49.4358107,76.1304039 48.79423,76.60563 C47.8723575,77.2870665 47.433269,76.8934872 46.2982467,76.970947 C45.3934261,77.0347989 44.707084,77.7675264 44.1209222,78.4479161 C42.4135929,80.431514 40.7073293,82.4140652 39,84.3976631" id="Fill-50" fill="#F9D4BB"></path>
                    <path d="M2.60022326,58.3108396 C2.14925541,58.7159281 1.86858311,59.2853549 1.60367892,59.8348935 C-0.186526785,63.5518684 -0.452482184,66.6230045 0.678616666,70.5482807 C2.46251513,76.7397497 3.46852034,83.2358201 3.53159276,89.681647 C3.5957164,96.3221676 1.78448655,102.80463 1.32405783,109.404328 C1.27885593,110.051214 1.25152454,110.716941 1.46912441,111.32719 C2.60127447,114.504047 7.1593085,115.051492 9.89665181,116.121261 C12.5509498,117.157534 15.1653018,118.293247 17.7323496,119.52526 C23.3258226,122.212243 26.7033511,121.149801 31.1184209,116.971214 C31.986718,116.149523 32.8760392,115.298523 33.3690554,114.212006 C34.6641425,111.358592 33.1020488,107.512868 32.3704086,104.663641 C31.545211,101.451195 30.5896638,98.1079066 30.8356462,94.7562441 C30.9891225,92.66067 32.4976047,90.5630024 32.935958,88.4956902 C33.1356874,87.5567642 33.2103231,84.4238704 33.9062222,83.8052469 C34.7797753,83.0275188 37.0924309,84.5128433 38.1509965,84.9378199 C38.402235,85.038307 38.6639856,85.1419343 38.935197,85.1262332 C39.2831466,85.1073918 39.5869454,84.896997 39.8655153,84.6897424 C42.488277,82.7490859 44.7799085,80.362518 46.6111113,77.6671616 C48.9006404,74.2945643 40.417399,69.3958196 38.4358736,68.1135627 C35.9392567,66.4994892 33.3564409,65.0204451 30.7504985,63.5905978 C29.0139043,62.6380641 21.3033002,61.6363336 19.769589,62.376379 C17.9709736,63.2451735 16.4225455,63.2828562 14.5219631,62.5292031 C13.5685182,62.1523766 12.6350463,61.6604087 11.9401984,60.9078024 C10.2414477,59.0665861 11.2358897,57.0191621 11.9118158,55 C11.6216827,55.8677477 4.98120737,57.2944548 3.99202148,57.6220845 C3.56102656,57.7654879 3.12162199,57.9109848 2.75790433,58.1810438 C2.70324156,58.2218667 2.6506812,58.2658298 2.60022326,58.3108396" id="Fill-52" fill="#FFBA00"></path>
                    <path d="M20.2587561,55 C20.5009903,54.4217527 23.3230731,53.6483339 23.8444741,53.2922498 C26.1136546,51.7422978 29.0258963,51.0207863 28.9998262,47.9219204 C28.9889637,46.5110799 28.4632177,27.9542197 25.6900163,29.0463493 C25.3228631,29.1916898 23.8281803,35.0374901 23.5175122,35.2752255 C23.0265263,35.6499962 21.3450081,38.8640963 21.3450081,39.4278096 L20.2587561,40.4659556 L17,40.4659556 L19.1725041,47.7329778 L22.4312602,48.7711238 L18.086252,50.8474159 C18.086252,50.8474159 20.2598424,54.9968856 20.2587561,55" id="Fill-54" fill="#F9D4BB"></path>
                    <polygon id="Fill-56" fill="#F9D4BB" points="19.0666667 22.6875 22.2666667 13.40625 23.3333333 10.3125 23.3333333 0 30.8 0 34 2.0625 32.9333333 7.21875 29.7333333 13.40625 26.5333333 33 19.0666667 30.9375 18 25.78125"></polygon>
                    <path d="M24.8318803,35.0149644 C25.4313724,33.3572689 25.6504971,31.5937408 25.9988227,29.8270692 C26.045335,29.5672029 24.6995786,28.3978045 24.4608154,28.1599431 C23.3837969,27.0911381 22.0928217,26.4194676 20.6736792,25.9311705 C16.973366,24.659083 12.8213665,24.6842314 9.11795248,26.044338 C5.53650408,27.3614829 1.77004002,30.1550456 0.342628692,33.8455661 C0.325057373,33.8937671 0.30851966,33.9419681 0.29094834,33.9891212 C-0.234124037,35.534697 0.118335964,36.9241434 0.086294146,38.5137287 C0.0253113306,41.5074303 0.644441949,43.453284 2.29511239,45.9042003 C4.02950501,48.4766671 5.55200818,51.2105024 6.93600801,53.990443 C7.07451136,54.2691705 7.21714913,54.5562809 7.45281153,54.7585155 C8.74068591,55.8629473 10.1887694,57.1832357 11.9955145,56.9789054 C14.9950421,56.6394026 18.0607206,55.8419903 20.4597225,53.9170936 C21.6587067,52.9541214 22.0587126,51.5521008 22.7191875,50.2150468 C22.7822376,50.0872094 22.8473548,49.9373671 22.7946409,49.8032426 C22.7553638,49.7016013 22.6561375,49.6355869 22.5600121,49.5810988 C21.4075402,48.9230503 19.9243141,48.7742559 19.0726219,47.7484127 C18.6074987,47.1888619 18.412147,46.4532727 18.2550387,45.7375925 C18.0534854,44.8165341 17.8953435,43.8849973 17.7785459,42.9482212 C17.765109,42.8371494 17.7516721,42.7197904 17.7950836,42.6150056 C17.9769984,42.178053 19.8478272,42.4012446 20.2364634,42.4033403 C20.4411176,42.405436 20.6602423,42.4022925 20.8287203,42.2838856 C20.9537867,42.1969143 21.0333745,42.0585983 21.1077942,41.9255216 C22.0721495,40.2028596 23.4416789,38.415231 24.1248931,36.5689229 C24.4101687,36.0638602 24.640663,35.5451754 24.8318803,35.0149644" id="Fill-58" fill="#83544E"></path>
                </g>
            </g>
        </g>
    </g>
</svg>